<?xml version="1.0" encoding="UTF-8" standalone="no"?> <svg width="64" height="64" viewBox="0 0 64 64" fill="none" xmlns="http://www.w3.org/2000/svg">
<path d="M55.1701 6.86011H8.83008C8.56486 6.86011 8.31051 6.96546 8.12297 7.153C7.93544 7.34054 7.83008 7.59489 7.83008 7.86011V19.4501C7.83008 19.7153 7.93544 19.9697 8.12297 20.1572C8.31051 20.3447 8.56486 20.4501 8.83008 20.4501H11.6901V48.4501C11.6901 48.7153 11.7954 48.9697 11.983 49.1572C12.1705 49.3448 12.4249 49.4501 12.6901 49.4501H51.3101C51.5753 49.4501 51.8296 49.3448 52.0172 49.1572C52.2047 48.9697 52.3101 48.7153 52.3101 48.4501V20.4501H55.1701C55.4353 20.4501 55.6896 20.3447 55.8772 20.1572C56.0647 19.9697 56.1701 19.7153 56.1701 19.4501V7.86011C56.1701 7.59489 56.0647 7.34054 55.8772 7.153C55.6896 6.96546 55.4353 6.86011 55.1701 6.86011Z" fill="url(#paint0_linear)"/>
<path d="M56.1399 47.4102H7.85986C7.30758 47.4102 6.85986 47.8579 6.85986 48.4102V56.1302C6.85986 56.6824 7.30758 57.1302 7.85986 57.1302H56.1399C56.6921 57.1302 57.1399 56.6824 57.1399 56.1302V48.4102C57.1399 47.8579 56.6921 47.4102 56.1399 47.4102Z" fill="url(#paint1_linear)"/>
<path d="M56.1399 8.79004H55.1399C54.8747 8.79004 54.6203 8.8954 54.4328 9.08293C54.2452 9.27047 54.1399 9.52482 54.1399 9.79004V17.51C54.1399 17.7753 54.2452 18.0296 54.4328 18.2171C54.6203 18.4047 54.8747 18.51 55.1399 18.51H56.1399C56.7781 18.51 57.4101 18.3843 57.9997 18.1401C58.5894 17.8959 59.1251 17.5379 59.5764 17.0866C60.0277 16.6353 60.3857 16.0995 60.6299 15.5099C60.8742 14.9202 60.9999 14.2883 60.9999 13.65C60.9999 13.0118 60.8742 12.3798 60.6299 11.7902C60.3857 11.2006 60.0277 10.6648 59.5764 10.2135C59.1251 9.76221 58.5894 9.40422 57.9997 9.15998C57.4101 8.91575 56.7781 8.79004 56.1399 8.79004V8.79004Z" fill="url(#paint2_linear)"/>
<path d="M8.82997 8.79004H7.82997C7.19175 8.79004 6.55977 8.91575 5.97013 9.15998C5.38049 9.40422 4.84472 9.76221 4.39343 10.2135C3.94214 10.6648 3.58415 11.2006 3.33992 11.7902C3.09568 12.3798 2.96997 13.0118 2.96997 13.65C2.96997 14.2883 3.09568 14.9202 3.33992 15.5099C3.58415 16.0995 3.94214 16.6353 4.39343 17.0866C4.84472 17.5379 5.38049 17.8959 5.97013 18.1401C6.55977 18.3843 7.19175 18.51 7.82997 18.51H8.82997C9.09519 18.51 9.34954 18.4047 9.53708 18.2171C9.72461 18.0296 9.82997 17.7753 9.82997 17.51V9.79004C9.82997 9.52482 9.72461 9.27047 9.53708 9.08293C9.34954 8.8954 9.09519 8.79004 8.82997 8.79004Z" fill="url(#paint3_linear)"/>
<path d="M45.52 22.3102H37.83V12.6902C37.83 12.425 37.7246 12.1706 37.5371 11.9831C37.3496 11.7955 37.0952 11.6902 36.83 11.6902H27.17C26.9048 11.6902 26.6504 11.7955 26.4629 11.9831C26.2753 12.1706 26.17 12.425 26.17 12.6902V22.3102H18.48C18.2148 22.3102 17.9604 22.4155 17.7729 22.6031C17.5853 22.7906 17.48 23.045 17.48 23.3102C17.48 23.5754 17.5853 23.8298 17.7729 24.0173C17.9604 24.2048 18.2148 24.3102 18.48 24.3102H26.48C26.8321 25.2825 27.4362 26.1439 28.2303 26.8063C29.0245 27.4686 29.9802 27.9083 31 28.0802V32.0002C31 32.2654 31.1053 32.5198 31.2929 32.7073C31.4804 32.8948 31.7348 33.0002 32 33.0002C32.2652 33.0002 32.5196 32.8948 32.7071 32.7073C32.8946 32.5198 33 32.2654 33 32.0002V28.0802C34.0125 27.9017 34.9599 27.4592 35.7466 26.7972C36.5332 26.1352 37.1312 25.2773 37.48 24.3102H45.48C45.7452 24.3102 45.9996 24.2048 46.1871 24.0173C46.3746 23.8298 46.48 23.5754 46.48 23.3102C46.48 23.045 46.3746 22.7906 46.1871 22.6031C45.9996 22.4155 45.7452 22.3102 45.48 22.3102H45.52Z" fill="url(#paint4_linear)"/>
<path d="M55.1701 6.86011H8.83008C8.56486 6.86011 8.31051 6.96546 8.12297 7.153C7.93544 7.34054 7.83008 7.59489 7.83008 7.86011V19.4501C7.83008 19.7153 7.93544 19.9697 8.12297 20.1572C8.31051 20.3447 8.56486 20.4501 8.83008 20.4501H17.5201H17.6101C17.7786 20.4412 17.9415 20.3861 18.0808 20.2909C18.2201 20.1957 18.3306 20.0639 18.4001 19.9101V19.9101L21.0301 13.7601H43.8901L46.5201 19.9101C46.566 20.0171 46.6303 20.1152 46.7101 20.2001L46.7801 20.2601C46.8439 20.3155 46.9145 20.3625 46.9901 20.4001H47.0801C47.1916 20.4442 47.3102 20.468 47.4301 20.4701H55.1501C55.4153 20.4701 55.6696 20.3648 55.8572 20.1772C56.0447 19.9897 56.1501 19.7353 56.1501 19.4701V7.86011C56.1501 7.59832 56.0475 7.34695 55.8643 7.15998C55.6811 6.97301 55.4318 6.86534 55.1701 6.86011Z" fill="url(#paint5_linear)"/>
<path d="M26.91 47.41H37.08C38.0248 46.7652 38.8391 45.9475 39.48 45H41.48C41.9453 45.0082 42.4076 44.924 42.8401 44.7523C43.2727 44.5807 43.6669 44.325 44 44C44.4985 43.5116 44.8397 42.8853 44.9796 42.2016C45.1195 41.5178 45.0518 40.8079 44.7852 40.1629C44.5186 39.5179 44.0653 38.9674 43.4835 38.582C42.9016 38.1966 42.2179 37.9939 41.52 38H41V37C41 36.7348 40.8946 36.4804 40.7071 36.2929C40.5196 36.1054 40.2652 36 40 36H24C23.7348 36 23.4804 36.1054 23.2929 36.2929C23.1054 36.4804 23 36.7348 23 37V40C23.002 41.4596 23.359 42.8968 24.0402 44.1877C24.7213 45.4786 25.7062 46.5845 26.91 47.41V47.41ZM41 40H41.5C41.8978 40 42.2794 40.158 42.5607 40.4393C42.842 40.7206 43 41.1022 43 41.5C43 41.8978 42.842 42.2794 42.5607 42.5607C42.2794 42.842 41.8978 43 41.5 43H40.5C40.8368 42.0359 41.0059 41.0212 41 40V40Z" fill="url(#paint6_linear)"/>
<path d="M46.32 55.54L43.42 51.68C43.3268 51.5558 43.2061 51.455 43.0672 51.3856C42.9283 51.3162 42.7752 51.28 42.62 51.28H21.38C21.2247 51.28 21.0716 51.3162 20.9328 51.3856C20.7939 51.455 20.6731 51.5558 20.58 51.68L17.68 55.54C17.5686 55.6886 17.5007 55.8653 17.484 56.0502C17.4673 56.2352 17.5025 56.4211 17.5856 56.5872C17.6686 56.7534 17.7963 56.893 17.9542 56.9907C18.1122 57.0883 18.2943 57.14 18.48 57.14H45.48C45.6657 57.14 45.8477 57.0883 46.0057 56.9907C46.1637 56.893 46.2914 56.7534 46.3744 56.5872C46.4575 56.4211 46.4926 56.2352 46.4759 56.0502C46.4593 55.8653 46.3914 55.6886 46.28 55.54H46.32Z" fill="url(#paint7_linear)"/>
<path d="M55.17 20.4501C55.4352 20.4501 55.6895 20.3447 55.8771 20.1572C56.0646 19.9697 56.17 19.7153 56.17 19.4501V18.5201C57.4589 18.5201 58.6951 18.0081 59.6065 17.0966C60.5179 16.1852 61.03 14.9491 61.03 13.6601C61.03 12.3712 60.5179 11.135 59.6065 10.2236C58.6951 9.31214 57.4589 8.80011 56.17 8.80011V7.86011C56.17 7.59489 56.0646 7.34054 55.8771 7.153C55.6895 6.96546 55.4352 6.86011 55.17 6.86011H8.82997C8.56475 6.86011 8.3104 6.96546 8.12286 7.153C7.93533 7.34054 7.82997 7.59489 7.82997 7.86011V8.80011C6.54102 8.80011 5.30486 9.31214 4.39343 10.2236C3.48201 11.135 2.96997 12.3712 2.96997 13.6601C2.96997 14.9491 3.48201 16.1852 4.39343 17.0966C5.30486 18.0081 6.54102 18.5201 7.82997 18.5201V19.4501C7.82997 19.7153 7.93533 19.9697 8.12286 20.1572C8.3104 20.3447 8.56475 20.4501 8.82997 20.4501H11.69V47.4501H7.85997C7.59475 47.4501 7.3404 47.5555 7.15286 47.743C6.96533 47.9305 6.85997 48.1849 6.85997 48.4501V56.1701C6.85997 56.4353 6.96533 56.6897 7.15286 56.8772C7.3404 57.0647 7.59475 57.1701 7.85997 57.1701H56.14C56.4052 57.1701 56.6595 57.0647 56.8471 56.8772C57.0346 56.6897 57.14 56.4353 57.14 56.1701V48.4101C57.14 48.1449 57.0346 47.8905 56.8471 47.703C56.6595 47.5155 56.4052 47.4101 56.14 47.4101H52.31V20.4101L55.17 20.4501ZM59 13.6601C58.9974 14.4127 58.6994 15.1341 58.1701 15.6691C57.6407 16.204 56.9225 16.5096 56.17 16.5201V10.7901C56.9242 10.8006 57.6439 11.1076 58.1736 11.6447C58.7032 12.1818 59 12.9058 59 13.6601V13.6601ZM4.99997 13.6601C5.00252 12.9075 5.30056 12.1861 5.82989 11.6512C6.35922 11.1162 7.07748 10.8106 7.82997 10.8001V16.5201C7.07748 16.5096 6.35922 16.204 5.82989 15.6691C5.30056 15.1341 5.00252 14.4127 4.99997 13.6601V13.6601ZM9.82997 17.5201V8.86011H54.17V18.4501H48.11L45.47 12.3001C45.3934 12.1194 45.2654 11.9651 45.1018 11.8567C44.9382 11.7482 44.7463 11.6903 44.55 11.6901H20.41C20.2137 11.6903 20.0218 11.7482 19.8582 11.8567C19.6946 11.9651 19.5665 12.1194 19.49 12.3001L16.85 18.4501H9.84997L9.82997 17.5201ZM35.83 22.3501C35.8565 22.8689 35.7772 23.3876 35.597 23.8748C35.4167 24.3619 35.1393 24.8073 34.7815 25.1839C34.4237 25.5605 33.9931 25.8603 33.5157 26.0652C33.0384 26.2701 32.5244 26.3757 32.005 26.3757C31.4855 26.3757 30.9715 26.2701 30.4942 26.0652C30.0169 25.8603 29.5862 25.5605 29.2284 25.1839C28.8707 24.8073 28.5932 24.3619 28.413 23.8748C28.2327 23.3876 28.1534 22.8689 28.18 22.3501V13.6901H35.83V22.3501ZM20.48 55.1401L21.88 53.2801H42.12L43.52 55.1401H20.48ZM55.13 55.1401H46L43.4 51.6801C43.3068 51.5559 43.186 51.4551 43.0472 51.3857C42.9083 51.3163 42.7552 51.2801 42.6 51.2801H21.38C21.2247 51.2801 21.0716 51.3163 20.9328 51.3857C20.7939 51.4551 20.6731 51.5559 20.58 51.6801L18 55.1401H8.85997V49.4101H55.14L55.13 55.1401ZM41 40.0001H41.5C41.8978 40.0001 42.2793 40.1581 42.5606 40.4394C42.8419 40.7208 43 41.1023 43 41.5001C43 41.8979 42.8419 42.2795 42.5606 42.5608C42.2793 42.8421 41.8978 43.0001 41.5 43.0001H40.5C40.8368 42.036 41.0059 41.0213 41 40.0001V40.0001ZM39 40.0001C39 41.8566 38.2625 43.6371 36.9497 44.9499C35.637 46.2626 33.8565 47.0001 32 47.0001C30.1435 47.0001 28.363 46.2626 27.0502 44.9499C25.7375 43.6371 25 41.8566 25 40.0001V38.0001H39V40.0001ZM50.31 47.4101H37.09C38.0312 46.7643 38.842 45.9467 39.48 45.0001H41.48C41.9453 45.0083 42.4076 44.9241 42.8401 44.7525C43.2727 44.5808 43.6669 44.3251 44 44.0001C44.4985 43.5117 44.8396 42.8854 44.9796 42.2017C45.1195 41.5179 45.0518 40.808 44.7852 40.163C44.5186 39.518 44.0653 38.9675 43.4834 38.5821C42.9016 38.1967 42.2178 37.994 41.52 38.0001H41V37.0001C41 36.7349 40.8946 36.4805 40.7071 36.293C40.5195 36.1055 40.2652 36.0001 40 36.0001H24C23.7348 36.0001 23.4804 36.1055 23.2929 36.293C23.1053 36.4805 23 36.7349 23 37.0001V40.0001C23.002 41.4597 23.359 42.8969 24.0401 44.1878C24.7213 45.4787 25.7062 46.5846 26.91 47.4101H13.69V20.4101H17.52H17.61C17.7091 20.4046 17.8068 20.3844 17.9 20.3501C18.0081 20.2824 18.1148 20.2124 18.22 20.1401C18.2978 20.0613 18.362 19.97 18.41 19.8701L21.04 13.7201H26.14V22.3401H18.48C18.2148 22.3401 17.9604 22.4455 17.7729 22.633C17.5853 22.8205 17.48 23.0749 17.48 23.3401C17.48 23.6053 17.5853 23.8597 17.7729 24.0472C17.9604 24.2348 18.2148 24.3401 18.48 24.3401H26.48C26.8365 25.3068 27.4424 26.162 28.2363 26.8189C29.0301 27.4757 29.9836 27.9109 31 28.0801V32.0001C31 32.2653 31.1053 32.5197 31.2929 32.7072C31.4804 32.8948 31.7348 33.0001 32 33.0001C32.2652 33.0001 32.5195 32.8948 32.7071 32.7072C32.8946 32.5197 33 32.2653 33 32.0001V28.0801C34.0125 27.9017 34.9599 27.4591 35.7466 26.7971C36.5332 26.1351 37.1312 25.2772 37.48 24.3101H45.48C45.7452 24.3101 45.9995 24.2048 46.1871 24.0172C46.3746 23.8297 46.48 23.5753 46.48 23.3101C46.48 23.0449 46.3746 22.7905 46.1871 22.603C45.9995 22.4155 45.7452 22.3101 45.48 22.3101H37.83V13.6901H43.9L46.53 19.8401C46.5759 19.9471 46.6402 20.0452 46.72 20.1301L46.79 20.1901C46.8538 20.2455 46.9243 20.2925 47 20.3301H47.09C47.2015 20.3742 47.32 20.398 47.44 20.4001H50.3L50.31 47.4101Z" fill="black"/>
<defs>
<linearGradient id="paint0_linear" x1="7.83008" y1="28.1401" x2="56.1701" y2="28.1401" gradientUnits="userSpaceOnUse">
<stop stop-color="#C6C6C6"/>
<stop offset="0.42" stop-color="#AEAEAE"/>
<stop offset="1" stop-color="#878787"/>
</linearGradient>
<linearGradient id="paint1_linear" x1="6.85986" y1="52.2802" x2="57.1399" y2="52.2802" gradientUnits="userSpaceOnUse">
<stop stop-color="#AC9430"/>
<stop offset="0.36" stop-color="#9F7C21"/>
<stop offset="1" stop-color="#834800"/>
</linearGradient>
<linearGradient id="paint2_linear" x1="425.746" y1="141.565" x2="472.6" y2="141.565" gradientUnits="userSpaceOnUse">
<stop stop-color="#C6C6C6"/>
<stop offset="0.42" stop-color="#AEAEAE"/>
<stop offset="1" stop-color="#878787"/>
</linearGradient>
<linearGradient id="paint3_linear" x1="23.55" y1="141.565" x2="70.4038" y2="141.565" gradientUnits="userSpaceOnUse">
<stop stop-color="#C6C6C6"/>
<stop offset="0.42" stop-color="#AEAEAE"/>
<stop offset="1" stop-color="#878787"/>
</linearGradient>
<linearGradient id="paint4_linear" x1="17.48" y1="22.3402" x2="46.52" y2="22.3402" gradientUnits="userSpaceOnUse">
<stop stop-color="#FDFBF7"/>
<stop offset="0.35" stop-color="#F5F0DF"/>
<stop offset="1" stop-color="#E3D7A9"/>
</linearGradient>
<linearGradient id="paint5_linear" x1="386.176" y1="192.773" x2="2721.96" y2="192.773" gradientUnits="userSpaceOnUse">
<stop stop-color="#AC9430"/>
<stop offset="0.36" stop-color="#9F7C21"/>
<stop offset="1" stop-color="#834800"/>
</linearGradient>
<linearGradient id="paint6_linear" x1="530.165" y1="511.911" x2="1015.28" y2="511.911" gradientUnits="userSpaceOnUse">
<stop stop-color="#FDFBF7"/>
<stop offset="0.35" stop-color="#F5F0DF"/>
<stop offset="1" stop-color="#E3D7A9"/>
</linearGradient>
<linearGradient id="paint7_linear" x1="524.4" y1="368.951" x2="1366.56" y2="368.951" gradientUnits="userSpaceOnUse">
<stop stop-color="#C6C6C6"/>
<stop offset="0.42" stop-color="#AEAEAE"/>
<stop offset="1" stop-color="#878787"/>
</linearGradient>
</defs>
</svg>
