<?xml version="1.0" encoding="UTF-8" standalone="no"?> <svg width="64" height="64" viewBox="0 0 64 64" fill="none" xmlns="http://www.w3.org/2000/svg">
<path d="M34.3201 31.43L27.3201 21.43C27.2282 21.2975 27.1056 21.1893 26.9628 21.1144C26.82 21.0395 26.6613 21.0003 26.5001 21H12.5001C12.3388 21.0003 12.1801 21.0395 12.0373 21.1144C11.8945 21.1893 11.772 21.2975 11.6801 21.43L4.68007 31.43C4.57608 31.5799 4.51508 31.7554 4.50367 31.9375C4.49226 32.1195 4.53087 32.3012 4.61533 32.463C4.69978 32.6247 4.82686 32.7602 4.98281 32.8548C5.13876 32.9495 5.31764 32.9997 5.50007 33H33.5001C33.6825 32.9997 33.8614 32.9495 34.0173 32.8548C34.1733 32.7602 34.3003 32.6247 34.3848 32.463C34.4693 32.3012 34.5079 32.1195 34.4965 31.9375C34.4851 31.7554 34.4241 31.5799 34.3201 31.43Z" fill="url(#paint0_linear)"/>
<path d="M33.5 31H5.5C5.23478 31 4.98043 31.1054 4.79289 31.2929C4.60536 31.4804 4.5 31.7348 4.5 32V41.6C4.5 41.8652 4.60536 42.1196 4.79289 42.3071C4.98043 42.4946 5.23478 42.6 5.5 42.6C5.88 42.6 6.11 42.8 6.5 43.32L6.69 43.58C6.95921 44.1019 7.36012 44.5444 7.85301 44.8636C8.3459 45.1829 8.91365 45.3678 9.5 45.4C10.0856 45.3648 10.6521 45.1788 11.1445 44.8598C11.6369 44.5409 12.0384 44.1 12.31 43.58C12.82 42.87 13.05 42.58 13.5 42.58C13.95 42.58 14.17 42.85 14.68 43.58C14.9516 44.1 15.3531 44.5409 15.8455 44.8598C16.3379 45.1788 16.9044 45.3648 17.49 45.4C18.0773 45.3665 18.6459 45.1812 19.1402 44.8622C19.6345 44.5432 20.0376 44.1014 20.31 43.58C20.81 42.87 21.05 42.58 21.49 42.58C21.93 42.58 22.17 42.85 22.68 43.58C22.95 44.1013 23.3511 44.5432 23.8438 44.8624C24.3366 45.1815 24.9039 45.3668 25.49 45.4C26.0771 45.3656 26.6453 45.1799 27.1394 44.861C27.6335 44.5421 28.0368 44.1008 28.31 43.58C28.82 42.87 29.05 42.58 29.5 42.58C29.95 42.58 30.17 42.85 30.68 43.58C31.1043 44.3002 31.7397 44.8727 32.5 45.22C32.8182 45.3454 33.1581 45.4066 33.5 45.4C33.7652 45.4 34.0196 45.2946 34.2071 45.1071C34.3946 44.9196 34.5 44.6652 34.5 44.4V32C34.5 31.7348 34.3946 31.4804 34.2071 31.2929C34.0196 31.1054 33.7652 31 33.5 31Z" fill="url(#paint1_linear)"/>
<path d="M58.63 41.38C58.5813 40.4665 58.1838 39.6065 57.5195 38.9776C56.8552 38.3486 55.9748 37.9987 55.06 38H50.5V19C50.5 14.7565 48.8143 10.6869 45.8137 7.68629C42.8131 4.68571 38.7435 3 34.5 3C30.2565 3 26.1869 4.68571 23.1863 7.68629C20.1857 10.6869 18.5 14.7565 18.5 19V26H17.5C17.2348 26 16.9804 26.1054 16.7929 26.2929C16.6054 26.4804 16.5 26.7348 16.5 27C16.5 27.2652 16.6054 27.5196 16.7929 27.7071C16.9804 27.8946 17.2348 28 17.5 28H21.5C21.7652 28 22.0196 27.8946 22.2071 27.7071C22.3946 27.5196 22.5 27.2652 22.5 27C22.5 26.7348 22.3946 26.4804 22.2071 26.2929C22.0196 26.1054 21.7652 26 21.5 26H20.5V19C20.5 15.287 21.975 11.726 24.6005 9.1005C27.226 6.475 30.787 5 34.5 5C38.213 5 41.774 6.475 44.3995 9.1005C47.025 11.726 48.5 15.287 48.5 19V38H43.94C43.0269 38.0013 42.149 38.3523 41.4869 38.981C40.8247 39.6097 40.4286 40.4682 40.38 41.38L39.65 55.24C39.6242 55.7237 39.6971 56.2076 39.8643 56.6623C40.0315 57.1169 40.2895 57.5327 40.6226 57.8845C40.9556 58.2362 41.3568 58.5165 41.8016 58.7083C42.2464 58.9001 42.7256 58.9993 43.21 59H55.79C56.2744 58.9993 56.7536 58.9001 57.1984 58.7083C57.6432 58.5165 58.0444 58.2362 58.3774 57.8845C58.7105 57.5327 58.9685 57.1169 59.1357 56.6623C59.3029 56.2076 59.3758 55.7237 59.35 55.24L58.63 41.38Z" fill="url(#paint2_linear)"/>
<path d="M33.5 43.4001C33.11 43.4001 32.88 43.2001 32.5 42.6801L32.31 42.4201C32.0384 41.9001 31.6369 41.4592 31.1445 41.1403C30.6521 40.8213 30.0856 40.6353 29.5 40.6001C28.9127 40.6336 28.3441 40.8189 27.8498 41.1379C27.3555 41.4569 26.9524 41.8987 26.68 42.4201C26.17 43.1301 25.93 43.4201 25.49 43.4201C25.05 43.4201 24.81 43.1501 24.3 42.4201C24.03 41.8988 23.6289 41.4569 23.1362 41.1377C22.6434 40.8186 22.0761 40.6333 21.49 40.6001C20.9044 40.6353 20.3379 40.8213 19.8455 41.1403C19.3531 41.4592 18.9516 41.9001 18.68 42.4201C18.17 43.1301 17.94 43.4201 17.49 43.4201C17.04 43.4201 16.82 43.1501 16.31 42.4201C16.0384 41.9001 15.6369 41.4592 15.1445 41.1403C14.6521 40.8213 14.0856 40.6353 13.5 40.6001C12.9127 40.6336 12.3441 40.8189 11.8498 41.1379C11.3555 41.4569 10.9524 41.8987 10.68 42.4201C10.17 43.1301 9.94 43.4201 9.5 43.4201C9.06 43.4201 8.82 43.1501 8.31 42.4201C7.8868 41.7026 7.25558 41.1307 6.5 40.7801C6.18182 40.6547 5.84195 40.5935 5.5 40.6001C5.23478 40.6001 4.98043 40.7055 4.79289 40.893C4.60536 41.0805 4.5 41.3349 4.5 41.6001V60.0001C4.5 60.2653 4.60536 60.5197 4.79289 60.7072C4.98043 60.8947 5.23478 61.0001 5.5 61.0001H33.5C33.7652 61.0001 34.0196 60.8947 34.2071 60.7072C34.3946 60.5197 34.5 60.2653 34.5 60.0001V44.4001C34.5 44.1349 34.3946 43.8805 34.2071 43.693C34.0196 43.5055 33.7652 43.4001 33.5 43.4001Z" fill="url(#paint3_linear)"/>
<path d="M10 47C9.80222 47 9.60888 47.0586 9.44443 47.1685C9.27998 47.2784 9.15181 47.4346 9.07612 47.6173C9.00043 47.8 8.98063 48.0011 9.01922 48.1951C9.0578 48.3891 9.15304 48.5673 9.29289 48.7071C9.43275 48.847 9.61093 48.9422 9.80491 48.9808C9.99889 49.0194 10.2 48.9996 10.3827 48.9239C10.5654 48.8482 10.7216 48.72 10.8315 48.5556C10.9414 48.3911 11 48.1978 11 48C11 47.7348 10.8946 47.4804 10.7071 47.2929C10.5196 47.1054 10.2652 47 10 47Z" fill="url(#paint4_linear)"/>
<path d="M12 54C11.8022 54 11.6089 54.0586 11.4444 54.1685C11.28 54.2784 11.1518 54.4346 11.0761 54.6173C11.0004 54.8 10.9806 55.0011 11.0192 55.1951C11.0578 55.3891 11.153 55.5673 11.2929 55.7071C11.4327 55.847 11.6109 55.9422 11.8049 55.9808C11.9989 56.0194 12.2 55.9996 12.3827 55.9239C12.5654 55.8482 12.7216 55.72 12.8315 55.5556C12.9414 55.3911 13 55.1978 13 55C13 54.7348 12.8946 54.4804 12.7071 54.2929C12.5196 54.1054 12.2652 54 12 54Z" fill="url(#paint5_linear)"/>
<path d="M17 48C16.8022 48 16.6089 48.0586 16.4444 48.1685C16.28 48.2784 16.1518 48.4346 16.0761 48.6173C16.0004 48.8 15.9806 49.0011 16.0192 49.1951C16.0578 49.3891 16.153 49.5673 16.2929 49.7071C16.4327 49.847 16.6109 49.9422 16.8049 49.9808C16.9989 50.0194 17.2 49.9996 17.3827 49.9239C17.5654 49.8482 17.7216 49.72 17.8315 49.5556C17.9414 49.3911 18 49.1978 18 49C18 48.7348 17.8946 48.4804 17.7071 48.2929C17.5196 48.1054 17.2652 48 17 48Z" fill="url(#paint6_linear)"/>
<path d="M21 54C20.8022 54 20.6089 54.0586 20.4444 54.1685C20.28 54.2784 20.1518 54.4346 20.0761 54.6173C20.0004 54.8 19.9806 55.0011 20.0192 55.1951C20.0578 55.3891 20.153 55.5673 20.2929 55.7071C20.4327 55.847 20.6109 55.9422 20.8049 55.9808C20.9989 56.0194 21.2 55.9996 21.3827 55.9239C21.5654 55.8482 21.7216 55.72 21.8315 55.5556C21.9414 55.3911 22 55.1978 22 55C22 54.7348 21.8946 54.4804 21.7071 54.2929C21.5196 54.1054 21.2652 54 21 54Z" fill="url(#paint7_linear)"/>
<path d="M17 52C16.8022 52 16.6089 52.0586 16.4444 52.1685C16.28 52.2784 16.1518 52.4346 16.0761 52.6173C16.0004 52.8 15.9806 53.0011 16.0192 53.1951C16.0578 53.3891 16.153 53.5673 16.2929 53.7071C16.4327 53.847 16.6109 53.9422 16.8049 53.9808C16.9989 54.0194 17.2 53.9996 17.3827 53.9239C17.5654 53.8482 17.7216 53.72 17.8315 53.5556C17.9414 53.3911 18 53.1978 18 53C18 52.7348 17.8946 52.4804 17.7071 52.2929C17.5196 52.1054 17.2652 52 17 52Z" fill="url(#paint8_linear)"/>
<path d="M23 47C22.8022 47 22.6089 47.0586 22.4444 47.1685C22.28 47.2784 22.1518 47.4346 22.0761 47.6173C22.0004 47.8 21.9806 48.0011 22.0192 48.1951C22.0578 48.3891 22.153 48.5673 22.2929 48.7071C22.4327 48.847 22.6109 48.9422 22.8049 48.9808C22.9989 49.0194 23.2 48.9996 23.3827 48.9239C23.5654 48.8482 23.7216 48.72 23.8315 48.5556C23.9414 48.3911 24 48.1978 24 48C24 47.7348 23.8946 47.4804 23.7071 47.2929C23.5196 47.1054 23.2652 47 23 47Z" fill="url(#paint9_linear)"/>
<path d="M25 52C24.8022 52 24.6089 52.0586 24.4444 52.1685C24.28 52.2784 24.1518 52.4346 24.0761 52.6173C24.0004 52.8 23.9806 53.0011 24.0192 53.1951C24.0578 53.3891 24.153 53.5673 24.2929 53.7071C24.4327 53.847 24.6109 53.9422 24.8049 53.9808C24.9989 54.0194 25.2 53.9996 25.3827 53.9239C25.5654 53.8482 25.7216 53.72 25.8315 53.5556C25.9414 53.3911 26 53.1978 26 53C26 52.7348 25.8946 52.4804 25.7071 52.2929C25.5196 52.1054 25.2652 52 25 52Z" fill="url(#paint10_linear)"/>
<path d="M28 47C27.8022 47 27.6089 47.0586 27.4444 47.1685C27.28 47.2784 27.1518 47.4346 27.0761 47.6173C27.0004 47.8 26.9806 48.0011 27.0192 48.1951C27.0578 48.3891 27.153 48.5673 27.2929 48.7071C27.4327 48.847 27.6109 48.9422 27.8049 48.9808C27.9989 49.0194 28.2 48.9996 28.3827 48.9239C28.5654 48.8482 28.7216 48.72 28.8315 48.5556C28.9414 48.3911 29 48.1978 29 48C29 47.7348 28.8946 47.4804 28.7071 47.2929C28.5196 47.1054 28.2652 47 28 47Z" fill="url(#paint11_linear)"/>
<path d="M30 54C29.8022 54 29.6089 54.0586 29.4444 54.1685C29.28 54.2784 29.1518 54.4346 29.0761 54.6173C29.0004 54.8 28.9806 55.0011 29.0192 55.1951C29.0578 55.3891 29.153 55.5673 29.2929 55.7071C29.4327 55.847 29.6109 55.9422 29.8049 55.9808C29.9989 56.0194 30.2 55.9996 30.3827 55.9239C30.5654 55.8482 30.7216 55.72 30.8315 55.5556C30.9414 55.3911 31 55.1978 31 55C31 54.7348 30.8946 54.4804 30.7071 54.2929C30.5196 54.1054 30.2652 54 30 54Z" fill="url(#paint12_linear)"/>
<path d="M22 50C21.8022 50 21.6089 50.0586 21.4444 50.1685C21.28 50.2784 21.1518 50.4346 21.0761 50.6173C21.0004 50.8 20.9806 51.0011 21.0192 51.1951C21.0578 51.3891 21.153 51.5673 21.2929 51.7071C21.4327 51.847 21.6109 51.9422 21.8049 51.9808C21.9989 52.0194 22.2 51.9996 22.3827 51.9239C22.5654 51.8482 22.7216 51.72 22.8315 51.5556C22.9414 51.3911 23 51.1978 23 51C23 50.7348 22.8946 50.4804 22.7071 50.2929C22.5196 50.1054 22.2652 50 22 50Z" fill="url(#paint13_linear)"/>
<path d="M16 56C15.8022 56 15.6089 56.0586 15.4444 56.1685C15.28 56.2784 15.1518 56.4346 15.0761 56.6173C15.0004 56.8 14.9806 57.0011 15.0192 57.1951C15.0578 57.3891 15.153 57.5673 15.2929 57.7071C15.4327 57.847 15.6109 57.9422 15.8049 57.9808C15.9989 58.0194 16.2 57.9996 16.3827 57.9239C16.5654 57.8482 16.7216 57.72 16.8315 57.5556C16.9414 57.3911 17 57.1978 17 57C17 56.7348 16.8946 56.4804 16.7071 56.2929C16.5196 56.1054 16.2652 56 16 56Z" fill="url(#paint14_linear)"/>
<path d="M9 51C8.80222 51 8.60888 51.0586 8.44443 51.1685C8.27998 51.2784 8.15181 51.4346 8.07612 51.6173C8.00043 51.8 7.98063 52.0011 8.01922 52.1951C8.0578 52.3891 8.15304 52.5673 8.29289 52.7071C8.43275 52.847 8.61093 52.9422 8.80491 52.9808C8.99889 53.0194 9.19996 52.9996 9.38268 52.9239C9.56541 52.8482 9.72159 52.72 9.83147 52.5556C9.94135 52.3911 10 52.1978 10 52C10 51.7348 9.89464 51.4804 9.70711 51.2929C9.51957 51.1054 9.26522 51 9 51Z" fill="url(#paint15_linear)"/>
<path d="M13 49C12.8022 49 12.6089 49.0586 12.4444 49.1685C12.28 49.2784 12.1518 49.4346 12.0761 49.6173C12.0004 49.8 11.9806 50.0011 12.0192 50.1951C12.0578 50.3891 12.153 50.5673 12.2929 50.7071C12.4327 50.847 12.6109 50.9422 12.8049 50.9808C12.9989 51.0194 13.2 50.9996 13.3827 50.9239C13.5654 50.8482 13.7216 50.72 13.8315 50.5556C13.9414 50.3911 14 50.1978 14 50C14 49.7348 13.8946 49.4804 13.7071 49.2929C13.5196 49.1054 13.2652 49 13 49Z" fill="url(#paint16_linear)"/>
<path d="M14 45C13.8022 45 13.6089 45.0586 13.4444 45.1685C13.28 45.2784 13.1518 45.4346 13.0761 45.6173C13.0004 45.8 12.9806 46.0011 13.0192 46.1951C13.0578 46.3891 13.153 46.5673 13.2929 46.7071C13.4327 46.847 13.6109 46.9422 13.8049 46.9808C13.9989 47.0194 14.2 46.9996 14.3827 46.9239C14.5654 46.8482 14.7216 46.72 14.8315 46.5556C14.9414 46.3911 15 46.1978 15 46C15 45.7348 14.8946 45.4804 14.7071 45.2929C14.5196 45.1054 14.2652 45 14 45Z" fill="url(#paint17_linear)"/>
<path d="M21 47C21 46.7348 20.8946 46.4804 20.7071 46.2929C20.5196 46.1054 20.2652 46 20 46C19.8022 46 19.6089 46.0586 19.4444 46.1685C19.28 46.2784 19.1518 46.4346 19.0761 46.6173C19.0004 46.8 18.9806 47.0011 19.0192 47.1951C19.0578 47.3891 19.153 47.5673 19.2929 47.7071C19.4327 47.847 19.6109 47.9422 19.8049 47.9808C19.9989 48.0194 20.2 47.9996 20.3827 47.9239C20.5654 47.8482 20.7216 47.72 20.8315 47.5556C20.9414 47.3911 21 47.1978 21 47Z" fill="url(#paint18_linear)"/>
<path d="M58.63 41.38C58.5813 40.4665 58.1838 39.6065 57.5195 38.9776C56.8552 38.3486 55.9748 37.9987 55.06 38H50.5V19C50.5 14.7565 48.8143 10.6869 45.8137 7.68629C42.8131 4.68571 38.7435 3 34.5 3C30.2565 3 26.1869 4.68571 23.1863 7.68629C20.1857 10.6869 18.5 14.7565 18.5 19V21H12.5C12.3388 21.0003 12.18 21.0395 12.0372 21.1144C11.8945 21.1893 11.7719 21.2975 11.68 21.43L4.68 31.43C4.65304 31.4748 4.62964 31.5216 4.61 31.57V31.64C4.55087 31.752 4.51355 31.8741 4.5 32V60C4.5 60.2652 4.60536 60.5196 4.79289 60.7071C4.98043 60.8946 5.23478 61 5.5 61H33.5C33.7652 61 34.0196 60.8946 34.2071 60.7071C34.3946 60.5196 34.5 60.2652 34.5 60V32C34.4967 31.8835 34.473 31.7684 34.43 31.66V31.59C34.4104 31.5416 34.387 31.4948 34.36 31.45L27.36 21.45C27.2667 21.3081 27.1387 21.1924 26.9883 21.1137C26.8378 21.0349 26.6698 20.9958 26.5 21H20.5V19C20.5 15.287 21.975 11.726 24.6005 9.1005C27.226 6.475 30.787 5 34.5 5C38.213 5 41.774 6.475 44.3995 9.1005C47.025 11.726 48.5 15.287 48.5 19V38H43.94C43.0269 38.0013 42.149 38.3523 41.4869 38.981C40.8247 39.6097 40.4286 40.4682 40.38 41.38L39.65 55.24C39.6242 55.7237 39.6971 56.2076 39.8643 56.6623C40.0315 57.1169 40.2895 57.5327 40.6226 57.8845C40.9556 58.2362 41.3568 58.5165 41.8016 58.7083C42.2464 58.9001 42.7256 58.9993 43.21 59H55.79C56.2744 58.9993 56.7536 58.9001 57.1984 58.7083C57.6432 58.5165 58.0444 58.2362 58.3774 57.8845C58.7105 57.5327 58.9685 57.1169 59.1357 56.6623C59.3029 56.2076 59.3758 55.7237 59.35 55.24L58.63 41.38ZM32.5 42.67L32.31 42.42C32.0384 41.9 31.6369 41.4591 31.1445 41.1402C30.6521 40.8212 30.0856 40.6352 29.5 40.6C28.9127 40.6335 28.3441 40.8188 27.8498 41.1378C27.3555 41.4568 26.9524 41.8986 26.68 42.42C26.17 43.13 25.94 43.42 25.49 43.42C25.04 43.42 24.81 43.15 24.3 42.42C24.0284 41.9 23.6269 41.4591 23.1345 41.1402C22.6421 40.8212 22.0756 40.6352 21.49 40.6C20.9041 40.6342 20.3372 40.8199 19.8447 41.1389C19.3521 41.4579 18.9508 41.8994 18.68 42.42C18.17 43.13 17.94 43.42 17.49 43.42C17.04 43.42 16.81 43.15 16.31 42.42C16.0384 41.9 15.6369 41.4591 15.1445 41.1402C14.6521 40.8212 14.0856 40.6352 13.5 40.6C12.9141 40.6342 12.3472 40.8199 11.8547 41.1389C11.3621 41.4579 10.9608 41.8994 10.69 42.42C10.18 43.13 9.95 43.42 9.5 43.42C9.05 43.42 8.82 43.15 8.31 42.42C7.8863 41.7029 7.25523 41.1311 6.5 40.78V33H32.5V42.67ZM6.5 59V43.33L6.69 43.58C6.96079 44.1006 7.36209 44.5421 7.85465 44.8611C8.34721 45.1801 8.91415 45.3658 9.5 45.4C10.0859 45.3658 10.6528 45.1801 11.1453 44.8611C11.6379 44.5421 12.0392 44.1006 12.31 43.58C12.82 42.87 13.05 42.58 13.5 42.58C13.95 42.58 14.18 42.85 14.69 43.58C14.9608 44.1006 15.3621 44.5421 15.8547 44.8611C16.3472 45.1801 16.9141 45.3658 17.5 45.4C18.0859 45.3658 18.6528 45.1801 19.1453 44.8611C19.6379 44.5421 20.0392 44.1006 20.31 43.58C20.82 42.87 21.05 42.58 21.5 42.58C21.95 42.58 22.18 42.85 22.69 43.58C22.9616 44.1 23.3631 44.5409 23.8555 44.8598C24.3479 45.1788 24.9144 45.3648 25.5 45.4C26.0873 45.3665 26.6559 45.1812 27.1502 44.8622C27.6445 44.5432 28.0476 44.1014 28.32 43.58C28.83 42.87 29.06 42.58 29.51 42.58C29.96 42.58 30.19 42.85 30.7 43.58C31.1268 44.2982 31.7614 44.87 32.52 45.22V59H6.5ZM26 23L31.6 31H7.42L13 23H18.5V26H17.5C17.2348 26 16.9804 26.1054 16.7929 26.2929C16.6054 26.4804 16.5 26.7348 16.5 27C16.5 27.2652 16.6054 27.5196 16.7929 27.7071C16.9804 27.8946 17.2348 28 17.5 28H21.5C21.7652 28 22.0196 27.8946 22.2071 27.7071C22.3946 27.5196 22.5 27.2652 22.5 27C22.5 26.7348 22.3946 26.4804 22.2071 26.2929C22.0196 26.1054 21.7652 26 21.5 26H20.5V23H26ZM57 56.51C56.854 56.6658 56.6773 56.7897 56.4812 56.8741C56.285 56.9584 56.0735 57.0013 55.86 57H43.21C42.9969 57.0003 42.786 56.9572 42.5901 56.8733C42.3942 56.7895 42.2175 56.6666 42.0706 56.5122C41.9237 56.3579 41.8098 56.1752 41.7357 55.9754C41.6617 55.7756 41.6291 55.5628 41.64 55.35L42.37 41.49C42.3905 41.0876 42.565 40.7086 42.8572 40.4312C43.1494 40.1539 43.5371 39.9995 43.94 40H55.06C55.4629 39.9995 55.8506 40.1539 56.1428 40.4312C56.435 40.7086 56.6095 41.0876 56.63 41.49L57.36 55.35C57.3718 55.5625 57.3397 55.7752 57.2657 55.9748C57.1918 56.1743 57.0775 56.3565 56.93 56.51H57Z" fill="black"/>
<path d="M54.9101 43.5899C53.4101 42.0899 50.9101 41.8399 48.5101 42.9399C47.4437 43.4282 46.4747 44.1058 45.6501 44.9399C44.7075 45.8712 43.9686 46.9881 43.4801 48.2199C43.1331 49.01 42.9606 49.8657 42.9744 50.7286C42.9882 51.5915 43.188 52.4413 43.5601 53.2199C43.6301 53.3399 43.7101 53.4399 43.7801 53.5599C43.8307 53.6835 43.9055 53.7957 44.0001 53.8899L44.1101 54.0299L44.2501 54.1799L44.3901 54.3199C45.2955 55.1217 46.4711 55.5505 47.6801 55.5199C49.0453 55.4898 50.3777 55.0963 51.5401 54.3799C52.2693 53.9572 52.9414 53.443 53.5401 52.8499C54.3266 52.0734 54.9728 51.1667 55.4501 50.1699C56.5401 47.8899 56.4501 45.5799 55.2701 44.0199C55.1603 43.8683 55.04 43.7246 54.9101 43.5899V43.5899ZM45.3501 48.9299C45.7395 47.9606 46.3251 47.0822 47.0701 46.3499C47.7251 45.6904 48.4942 45.155 49.3401 44.7699C50.0163 44.4499 50.7523 44.2761 51.5001 44.2599C51.8392 44.2585 52.1764 44.3091 52.5001 44.4099C52.0796 44.5611 51.6997 44.8076 51.3901 45.1299C50.9095 45.5917 50.5964 46.2004 50.5001 46.8599C50.4718 47.1313 50.351 47.3848 50.158 47.5778C49.965 47.7708 49.7116 47.8915 49.4401 47.9199C49.2541 47.9552 49.0704 48.002 48.8901 48.0599H48.8201C48.6926 48.1109 48.569 48.1711 48.4501 48.2399L48.2501 48.3399C48.0548 48.4667 47.8738 48.6142 47.7101 48.7799C47.5107 48.978 47.3361 49.1996 47.1901 49.4399C47.0064 49.7727 46.8813 50.1347 46.8201 50.5099C46.7918 50.7813 46.671 51.0348 46.478 51.2278C46.285 51.4208 46.0316 51.5415 45.7601 51.5699C45.5602 51.6104 45.3631 51.6638 45.1701 51.7299C44.9198 50.8064 44.9795 49.8262 45.3401 48.9399L45.3501 48.9299ZM53.6701 49.3099C53.2907 50.0971 52.7801 50.814 52.1601 51.4299C51.6876 51.9051 51.1567 52.3184 50.5801 52.6599C50.0285 53.0268 49.4086 53.2788 48.7574 53.4008C48.1062 53.5228 47.4372 53.5123 46.7901 53.3699C47.1985 53.2166 47.5675 52.974 47.8701 52.6599C48.3507 52.1981 48.6639 51.5894 48.7601 50.9299C48.7798 50.774 48.8236 50.6222 48.8901 50.4799C48.9213 50.4381 48.9547 50.3981 48.9901 50.3599C49.0262 50.3069 49.0664 50.2568 49.1101 50.2099C49.2148 50.0948 49.345 50.0058 49.4901 49.9499H49.5401L49.8101 49.8899C50.4664 49.7831 51.0726 49.4727 51.5428 49.0025C52.0129 48.5323 52.3234 47.9262 52.4301 47.2699C52.4602 46.9991 52.5816 46.7466 52.7742 46.554C52.9669 46.3614 53.2194 46.24 53.4901 46.2099C53.6972 46.1675 53.901 46.1107 54.1001 46.0399C54.3606 47.1502 54.2041 48.3175 53.6601 49.3199L53.6701 49.3099Z" fill="black"/>
<path d="M10 47C9.80222 47 9.60888 47.0586 9.44443 47.1685C9.27998 47.2784 9.15181 47.4346 9.07612 47.6173C9.00043 47.8 8.98063 48.0011 9.01922 48.1951C9.0578 48.3891 9.15304 48.5673 9.29289 48.7071C9.43275 48.847 9.61093 48.9422 9.80491 48.9808C9.99889 49.0194 10.2 48.9996 10.3827 48.9239C10.5654 48.8482 10.7216 48.72 10.8315 48.5556C10.9414 48.3911 11 48.1978 11 48C11 47.7348 10.8946 47.4804 10.7071 47.2929C10.5196 47.1054 10.2652 47 10 47Z" fill="black"/>
<path d="M12 54C11.8022 54 11.6089 54.0586 11.4444 54.1685C11.28 54.2784 11.1518 54.4346 11.0761 54.6173C11.0004 54.8 10.9806 55.0011 11.0192 55.1951C11.0578 55.3891 11.153 55.5673 11.2929 55.7071C11.4327 55.847 11.6109 55.9422 11.8049 55.9808C11.9989 56.0194 12.2 55.9996 12.3827 55.9239C12.5654 55.8482 12.7216 55.72 12.8315 55.5556C12.9414 55.3911 13 55.1978 13 55C13 54.7348 12.8946 54.4804 12.7071 54.2929C12.5196 54.1054 12.2652 54 12 54Z" fill="black"/>
<path d="M17 48C16.8022 48 16.6089 48.0586 16.4444 48.1685C16.28 48.2784 16.1518 48.4346 16.0761 48.6173C16.0004 48.8 15.9806 49.0011 16.0192 49.1951C16.0578 49.3891 16.153 49.5673 16.2929 49.7071C16.4327 49.847 16.6109 49.9422 16.8049 49.9808C16.9989 50.0194 17.2 49.9996 17.3827 49.9239C17.5654 49.8482 17.7216 49.72 17.8315 49.5556C17.9414 49.3911 18 49.1978 18 49C18 48.7348 17.8946 48.4804 17.7071 48.2929C17.5196 48.1054 17.2652 48 17 48Z" fill="black"/>
<path d="M21 54C20.8022 54 20.6089 54.0586 20.4444 54.1685C20.28 54.2784 20.1518 54.4346 20.0761 54.6173C20.0004 54.8 19.9806 55.0011 20.0192 55.1951C20.0578 55.3891 20.153 55.5673 20.2929 55.7071C20.4327 55.847 20.6109 55.9422 20.8049 55.9808C20.9989 56.0194 21.2 55.9996 21.3827 55.9239C21.5654 55.8482 21.7216 55.72 21.8315 55.5556C21.9414 55.3911 22 55.1978 22 55C22 54.7348 21.8946 54.4804 21.7071 54.2929C21.5196 54.1054 21.2652 54 21 54Z" fill="black"/>
<path d="M17 52C16.8022 52 16.6089 52.0586 16.4444 52.1685C16.28 52.2784 16.1518 52.4346 16.0761 52.6173C16.0004 52.8 15.9806 53.0011 16.0192 53.1951C16.0578 53.3891 16.153 53.5673 16.2929 53.7071C16.4327 53.847 16.6109 53.9422 16.8049 53.9808C16.9989 54.0194 17.2 53.9996 17.3827 53.9239C17.5654 53.8482 17.7216 53.72 17.8315 53.5556C17.9414 53.3911 18 53.1978 18 53C18 52.7348 17.8946 52.4804 17.7071 52.2929C17.5196 52.1054 17.2652 52 17 52Z" fill="black"/>
<path d="M23 47C22.8022 47 22.6089 47.0586 22.4444 47.1685C22.28 47.2784 22.1518 47.4346 22.0761 47.6173C22.0004 47.8 21.9806 48.0011 22.0192 48.1951C22.0578 48.3891 22.153 48.5673 22.2929 48.7071C22.4327 48.847 22.6109 48.9422 22.8049 48.9808C22.9989 49.0194 23.2 48.9996 23.3827 48.9239C23.5654 48.8482 23.7216 48.72 23.8315 48.5556C23.9414 48.3911 24 48.1978 24 48C24 47.7348 23.8946 47.4804 23.7071 47.2929C23.5196 47.1054 23.2652 47 23 47Z" fill="black"/>
<path d="M25 52C24.8022 52 24.6089 52.0586 24.4444 52.1685C24.28 52.2784 24.1518 52.4346 24.0761 52.6173C24.0004 52.8 23.9806 53.0011 24.0192 53.1951C24.0578 53.3891 24.153 53.5673 24.2929 53.7071C24.4327 53.847 24.6109 53.9422 24.8049 53.9808C24.9989 54.0194 25.2 53.9996 25.3827 53.9239C25.5654 53.8482 25.7216 53.72 25.8315 53.5556C25.9414 53.3911 26 53.1978 26 53C26 52.7348 25.8946 52.4804 25.7071 52.2929C25.5196 52.1054 25.2652 52 25 52Z" fill="black"/>
<path d="M28 47C27.8022 47 27.6089 47.0586 27.4444 47.1685C27.28 47.2784 27.1518 47.4346 27.0761 47.6173C27.0004 47.8 26.9806 48.0011 27.0192 48.1951C27.0578 48.3891 27.153 48.5673 27.2929 48.7071C27.4327 48.847 27.6109 48.9422 27.8049 48.9808C27.9989 49.0194 28.2 48.9996 28.3827 48.9239C28.5654 48.8482 28.7216 48.72 28.8315 48.5556C28.9414 48.3911 29 48.1978 29 48C29 47.7348 28.8946 47.4804 28.7071 47.2929C28.5196 47.1054 28.2652 47 28 47Z" fill="black"/>
<path d="M30 54C29.8022 54 29.6089 54.0586 29.4444 54.1685C29.28 54.2784 29.1518 54.4346 29.0761 54.6173C29.0004 54.8 28.9806 55.0011 29.0192 55.1951C29.0578 55.3891 29.153 55.5673 29.2929 55.7071C29.4327 55.847 29.6109 55.9422 29.8049 55.9808C29.9989 56.0194 30.2 55.9996 30.3827 55.9239C30.5654 55.8482 30.7216 55.72 30.8315 55.5556C30.9414 55.3911 31 55.1978 31 55C31 54.7348 30.8946 54.4804 30.7071 54.2929C30.5196 54.1054 30.2652 54 30 54Z" fill="black"/>
<path d="M22 50C21.8022 50 21.6089 50.0586 21.4444 50.1685C21.28 50.2784 21.1518 50.4346 21.0761 50.6173C21.0004 50.8 20.9806 51.0011 21.0192 51.1951C21.0578 51.3891 21.153 51.5673 21.2929 51.7071C21.4327 51.847 21.6109 51.9422 21.8049 51.9808C21.9989 52.0194 22.2 51.9996 22.3827 51.9239C22.5654 51.8482 22.7216 51.72 22.8315 51.5556C22.9414 51.3911 23 51.1978 23 51C23 50.7348 22.8946 50.4804 22.7071 50.2929C22.5196 50.1054 22.2652 50 22 50Z" fill="black"/>
<path d="M16 56C15.8022 56 15.6089 56.0586 15.4444 56.1685C15.28 56.2784 15.1518 56.4346 15.0761 56.6173C15.0004 56.8 14.9806 57.0011 15.0192 57.1951C15.0578 57.3891 15.153 57.5673 15.2929 57.7071C15.4327 57.847 15.6109 57.9422 15.8049 57.9808C15.9989 58.0194 16.2 57.9996 16.3827 57.9239C16.5654 57.8482 16.7216 57.72 16.8315 57.5556C16.9414 57.3911 17 57.1978 17 57C17 56.7348 16.8946 56.4804 16.7071 56.2929C16.5196 56.1054 16.2652 56 16 56Z" fill="black"/>
<path d="M9 51C8.80222 51 8.60888 51.0586 8.44443 51.1685C8.27998 51.2784 8.15181 51.4346 8.07612 51.6173C8.00043 51.8 7.98063 52.0011 8.01922 52.1951C8.0578 52.3891 8.15304 52.5673 8.29289 52.7071C8.43275 52.847 8.61093 52.9422 8.80491 52.9808C8.99889 53.0194 9.19996 52.9996 9.38268 52.9239C9.56541 52.8482 9.72159 52.72 9.83147 52.5556C9.94135 52.3911 10 52.1978 10 52C10 51.7348 9.89464 51.4804 9.70711 51.2929C9.51957 51.1054 9.26522 51 9 51Z" fill="black"/>
<path d="M13 49C12.8022 49 12.6089 49.0586 12.4444 49.1685C12.28 49.2784 12.1518 49.4346 12.0761 49.6173C12.0004 49.8 11.9806 50.0011 12.0192 50.1951C12.0578 50.3891 12.153 50.5673 12.2929 50.7071C12.4327 50.847 12.6109 50.9422 12.8049 50.9808C12.9989 51.0194 13.2 50.9996 13.3827 50.9239C13.5654 50.8482 13.7216 50.72 13.8315 50.5556C13.9414 50.3911 14 50.1978 14 50C14 49.7348 13.8946 49.4804 13.7071 49.2929C13.5196 49.1054 13.2652 49 13 49Z" fill="black"/>
<path d="M14 45C13.8022 45 13.6089 45.0586 13.4444 45.1685C13.28 45.2784 13.1518 45.4346 13.0761 45.6173C13.0004 45.8 12.9806 46.0011 13.0192 46.1951C13.0578 46.3891 13.153 46.5673 13.2929 46.7071C13.4327 46.847 13.6109 46.9422 13.8049 46.9808C13.9989 47.0194 14.2 46.9996 14.3827 46.9239C14.5654 46.8482 14.7216 46.72 14.8315 46.5556C14.9414 46.3911 15 46.1978 15 46C15 45.7348 14.8946 45.4804 14.7071 45.2929C14.5196 45.1054 14.2652 45 14 45Z" fill="black"/>
<path d="M21 47C21 46.7348 20.8946 46.4804 20.7071 46.2929C20.5196 46.1054 20.2652 46 20 46C19.8022 46 19.6089 46.0586 19.4444 46.1685C19.28 46.2784 19.1518 46.4346 19.0761 46.6173C19.0004 46.8 18.9806 47.0011 19.0192 47.1951C19.0578 47.3891 19.153 47.5673 19.2929 47.7071C19.4327 47.847 19.6109 47.9422 19.8049 47.9808C19.9989 48.0194 20.2 47.9996 20.3827 47.9239C20.5654 47.8482 20.7216 47.72 20.8315 47.5556C20.9414 47.3911 21 47.1978 21 47Z" fill="black"/>
<defs>
<linearGradient id="paint0_linear" x1="4.50007" y1="27" x2="34.5001" y2="27" gradientUnits="userSpaceOnUse">
<stop stop-color="#FDFBF7"/>
<stop offset="0.35" stop-color="#F5F0DF"/>
<stop offset="1" stop-color="#E3D7A9"/>
</linearGradient>
<linearGradient id="paint1_linear" x1="4.5" y1="38.2" x2="34.5" y2="38.2" gradientUnits="userSpaceOnUse">
<stop stop-color="#C6C6C6"/>
<stop offset="0.42" stop-color="#AEAEAE"/>
<stop offset="1" stop-color="#878787"/>
</linearGradient>
<linearGradient id="paint2_linear" x1="723.608" y1="1739" x2="2560.38" y2="1739" gradientUnits="userSpaceOnUse">
<stop stop-color="#C6C6C6"/>
<stop offset="0.42" stop-color="#AEAEAE"/>
<stop offset="1" stop-color="#878787"/>
</linearGradient>
<linearGradient id="paint3_linear" x1="139.5" y1="1076.94" x2="1039.5" y2="1076.94" gradientUnits="userSpaceOnUse">
<stop stop-color="#AC9430"/>
<stop offset="0.36" stop-color="#9F7C21"/>
<stop offset="1" stop-color="#834800"/>
</linearGradient>
<linearGradient id="paint4_linear" x1="27" y1="143" x2="31.02" y2="143" gradientUnits="userSpaceOnUse">
<stop stop-color="#C6C6C6"/>
<stop offset="0.42" stop-color="#AEAEAE"/>
<stop offset="1" stop-color="#878787"/>
</linearGradient>
<linearGradient id="paint5_linear" x1="33" y1="164" x2="37.02" y2="164" gradientUnits="userSpaceOnUse">
<stop stop-color="#C6C6C6"/>
<stop offset="0.42" stop-color="#AEAEAE"/>
<stop offset="1" stop-color="#878787"/>
</linearGradient>
<linearGradient id="paint6_linear" x1="48" y1="146" x2="52.02" y2="146" gradientUnits="userSpaceOnUse">
<stop stop-color="#C6C6C6"/>
<stop offset="0.42" stop-color="#AEAEAE"/>
<stop offset="1" stop-color="#878787"/>
</linearGradient>
<linearGradient id="paint7_linear" x1="60" y1="164" x2="64.02" y2="164" gradientUnits="userSpaceOnUse">
<stop stop-color="#C6C6C6"/>
<stop offset="0.42" stop-color="#AEAEAE"/>
<stop offset="1" stop-color="#878787"/>
</linearGradient>
<linearGradient id="paint8_linear" x1="48" y1="158" x2="52.02" y2="158" gradientUnits="userSpaceOnUse">
<stop stop-color="#C6C6C6"/>
<stop offset="0.42" stop-color="#AEAEAE"/>
<stop offset="1" stop-color="#878787"/>
</linearGradient>
<linearGradient id="paint9_linear" x1="66" y1="143" x2="70.02" y2="143" gradientUnits="userSpaceOnUse">
<stop stop-color="#C6C6C6"/>
<stop offset="0.42" stop-color="#AEAEAE"/>
<stop offset="1" stop-color="#878787"/>
</linearGradient>
<linearGradient id="paint10_linear" x1="72" y1="158" x2="76.02" y2="158" gradientUnits="userSpaceOnUse">
<stop stop-color="#C6C6C6"/>
<stop offset="0.42" stop-color="#AEAEAE"/>
<stop offset="1" stop-color="#878787"/>
</linearGradient>
<linearGradient id="paint11_linear" x1="81" y1="143" x2="85.02" y2="143" gradientUnits="userSpaceOnUse">
<stop stop-color="#C6C6C6"/>
<stop offset="0.42" stop-color="#AEAEAE"/>
<stop offset="1" stop-color="#878787"/>
</linearGradient>
<linearGradient id="paint12_linear" x1="87" y1="164" x2="91.02" y2="164" gradientUnits="userSpaceOnUse">
<stop stop-color="#C6C6C6"/>
<stop offset="0.42" stop-color="#AEAEAE"/>
<stop offset="1" stop-color="#878787"/>
</linearGradient>
<linearGradient id="paint13_linear" x1="63" y1="152" x2="67.02" y2="152" gradientUnits="userSpaceOnUse">
<stop stop-color="#C6C6C6"/>
<stop offset="0.42" stop-color="#AEAEAE"/>
<stop offset="1" stop-color="#878787"/>
</linearGradient>
<linearGradient id="paint14_linear" x1="45" y1="170" x2="49.02" y2="170" gradientUnits="userSpaceOnUse">
<stop stop-color="#C6C6C6"/>
<stop offset="0.42" stop-color="#AEAEAE"/>
<stop offset="1" stop-color="#878787"/>
</linearGradient>
<linearGradient id="paint15_linear" x1="24" y1="155" x2="28.02" y2="155" gradientUnits="userSpaceOnUse">
<stop stop-color="#C6C6C6"/>
<stop offset="0.42" stop-color="#AEAEAE"/>
<stop offset="1" stop-color="#878787"/>
</linearGradient>
<linearGradient id="paint16_linear" x1="36" y1="149" x2="40.02" y2="149" gradientUnits="userSpaceOnUse">
<stop stop-color="#C6C6C6"/>
<stop offset="0.42" stop-color="#AEAEAE"/>
<stop offset="1" stop-color="#878787"/>
</linearGradient>
<linearGradient id="paint17_linear" x1="39" y1="137" x2="43.02" y2="137" gradientUnits="userSpaceOnUse">
<stop stop-color="#C6C6C6"/>
<stop offset="0.42" stop-color="#AEAEAE"/>
<stop offset="1" stop-color="#878787"/>
</linearGradient>
<linearGradient id="paint18_linear" x1="57" y1="140" x2="61.02" y2="140" gradientUnits="userSpaceOnUse">
<stop stop-color="#C6C6C6"/>
<stop offset="0.42" stop-color="#AEAEAE"/>
<stop offset="1" stop-color="#878787"/>
</linearGradient>
</defs>
</svg>
