<?xml version="1.0" encoding="UTF-8" standalone="no"?> <svg width="64" height="64" viewBox="0 0 64 64" fill="none" xmlns="http://www.w3.org/2000/svg">
<path d="M17.94 15.4901C17.7281 13.7985 16.9062 12.2423 15.6284 11.1137C14.3506 9.98503 12.7049 9.3615 11 9.36011C10.7348 9.36011 10.4804 9.46546 10.2929 9.653C10.1054 9.84054 10 10.0949 10 10.3601C10 10.6253 10.1054 10.8797 10.2929 11.0672C10.4804 11.2548 10.7348 11.3601 11 11.3601C12.1804 11.3626 13.3218 11.7826 14.2222 12.5458C15.1227 13.309 15.7241 14.3661 15.92 15.5301C14.9773 15.7735 14.1558 16.3523 13.6094 17.1581C13.063 17.9639 12.8292 18.9413 12.9519 19.9071C13.0746 20.8729 13.5453 21.7608 14.2758 22.4044C15.0063 23.048 15.9464 23.4031 16.92 23.4031C17.8936 23.4031 18.8337 23.048 19.5642 22.4044C20.2947 21.7608 20.7654 20.8729 20.8881 19.9071C21.0108 18.9413 20.777 17.9639 20.2306 17.1581C19.6842 16.3523 18.8627 15.7735 17.92 15.5301L17.94 15.4901Z" fill="url(#paint0_linear)"/>
<path d="M32.94 15.4901C32.7281 13.7985 31.9062 12.2423 30.6284 11.1137C29.3506 9.98503 27.7049 9.3615 26 9.36011C25.7348 9.36011 25.4804 9.46546 25.2929 9.653C25.1054 9.84054 25 10.0949 25 10.3601C25 10.6253 25.1054 10.8797 25.2929 11.0672C25.4804 11.2548 25.7348 11.3601 26 11.3601C27.1804 11.3626 28.3218 11.7826 29.2222 12.5458C30.1227 13.309 30.7241 14.3661 30.92 15.5301C29.9773 15.7735 29.1558 16.3523 28.6094 17.1581C28.063 17.9639 27.8292 18.9413 27.9519 19.9071C28.0746 20.8729 28.5453 21.7608 29.2758 22.4044C30.0063 23.048 30.9464 23.4031 31.92 23.4031C32.8936 23.4031 33.8337 23.048 34.5642 22.4044C35.2947 21.7608 35.7654 20.8729 35.8881 19.9071C36.0108 18.9413 35.777 17.9639 35.2306 17.1581C34.6842 16.3523 33.8627 15.7735 32.92 15.5301L32.94 15.4901Z" fill="url(#paint1_linear)"/>
<path d="M47.94 15.4901C47.7281 13.7985 46.9062 12.2423 45.6284 11.1137C44.3506 9.98503 42.7049 9.3615 41 9.36011C40.7348 9.36011 40.4804 9.46546 40.2929 9.653C40.1054 9.84054 40 10.0949 40 10.3601C40 10.6253 40.1054 10.8797 40.2929 11.0672C40.4804 11.2548 40.7348 11.3601 41 11.3601C42.1804 11.3626 43.3218 11.7826 44.2222 12.5458C45.1226 13.309 45.7241 14.3661 45.92 15.5301C44.9773 15.7735 44.1558 16.3523 43.6094 17.1581C43.063 17.9639 42.8292 18.9413 42.9519 19.9071C43.0746 20.8729 43.5453 21.7608 44.2758 22.4044C45.0063 23.048 45.9464 23.4031 46.92 23.4031C47.8936 23.4031 48.8337 23.048 49.5642 22.4044C50.2947 21.7608 50.7654 20.8729 50.8881 19.9071C51.0108 18.9413 50.777 17.9639 50.2306 17.1581C49.6842 16.3523 48.8627 15.7735 47.92 15.5301L47.94 15.4901Z" fill="url(#paint2_linear)"/>
<path d="M49.57 22.4201C48.7315 22.198 47.8674 22.0871 47 22.0901H8.54C8.13329 22.0901 7.7431 22.251 7.45458 22.5377C7.16606 22.8243 7.00264 23.2135 7 23.6202V28.4502H47.07C48.0134 28.4501 48.9184 28.8235 49.5873 29.4887C50.2563 30.1539 50.6347 31.0568 50.64 32.0001V54.6401H57V31.7802C56.9739 29.6172 56.2299 27.5242 54.885 25.83C53.5402 24.1358 51.6706 22.9364 49.57 22.4201V22.4201Z" fill="url(#paint3_linear)"/>
<path d="M47.07 26.4502H8C7.73478 26.4502 7.48043 26.5556 7.29289 26.7431C7.10536 26.9306 7 27.185 7 27.4502V36.3302C7.00048 36.5111 7.05003 36.6885 7.14336 36.8435C7.2367 36.9984 7.37032 37.1252 7.53 37.2102C7.98508 37.4518 8.48595 37.5949 9 37.6302C9.14984 37.6401 9.30016 37.6401 9.45 37.6302C10.1625 37.6159 10.8623 37.4381 11.4952 37.1104C12.128 36.7827 12.6771 36.3139 13.1 35.7402C13.84 34.9402 14.3 34.4902 15.27 34.4902C16.24 34.4902 16.71 34.9402 17.44 35.7402C17.8518 36.3241 18.3978 36.8006 19.0321 37.1295C19.6664 37.4584 20.3705 37.6301 21.085 37.6301C21.7995 37.6301 22.5036 37.4584 23.1379 37.1295C23.7722 36.8006 24.3182 36.3241 24.73 35.7402C25.46 34.9402 25.93 34.4902 26.89 34.4902C27.85 34.4902 28.33 34.9402 29.07 35.7402C29.4817 36.3241 30.0278 36.8006 30.6621 37.1295C31.2964 37.4584 32.0005 37.6301 32.715 37.6301C33.4295 37.6301 34.1336 37.4584 34.7679 37.1295C35.4022 36.8006 35.9483 36.3241 36.36 35.7402C37.1 34.9402 37.56 34.4902 38.53 34.4902C39.5 34.4902 40 35.0002 40.71 35.7702C41.1217 36.3541 41.6678 36.8306 42.3021 37.1595C42.9364 37.4884 43.6405 37.6601 44.355 37.6601C45.0695 37.6601 45.7736 37.4884 46.4079 37.1595C47.0422 36.8306 47.5883 36.3541 48 35.7702C48.74 34.9702 49.2 34.5202 50.17 34.5202C50.326 34.4995 50.484 34.4995 50.64 34.5202C50.8287 34.5498 51.0112 34.6106 51.18 34.7002C51.2974 34.7605 51.4256 34.7969 51.5572 34.8074C51.6888 34.8179 51.8211 34.8023 51.9466 34.7614C52.0721 34.7205 52.1883 34.6551 52.2884 34.5691C52.3886 34.4831 52.4707 34.3781 52.53 34.2602C52.6014 34.1209 52.6391 33.9667 52.64 33.8102V32.0002C52.6321 30.5272 52.0421 29.1171 50.9986 28.0774C49.9552 27.0378 48.543 26.4528 47.07 26.4502V26.4502Z" fill="url(#paint4_linear)"/>
<path d="M52.09 33.0002C51.6377 32.7694 51.1456 32.6269 50.64 32.5802C50.4835 32.57 50.3265 32.57 50.17 32.5802C49.4592 32.596 48.7614 32.7745 48.1304 33.1022C47.4993 33.4298 46.9518 33.8978 46.53 34.4702C45.79 35.2702 45.32 35.7202 44.35 35.7202C43.38 35.7202 42.92 35.2702 42.18 34.4702C41.7683 33.8862 41.2222 33.4098 40.5879 33.0809C39.9536 32.752 39.2495 32.5803 38.535 32.5803C37.8205 32.5803 37.1164 32.752 36.4821 33.0809C35.8478 33.4098 35.3017 33.8862 34.89 34.4702C34.15 35.2702 33.69 35.7202 32.72 35.7202C31.75 35.7202 31.28 35.2702 30.54 34.4702C30.1294 33.8863 29.5843 33.4097 28.9507 33.0808C28.3172 32.7518 27.6138 32.5801 26.9 32.5801C26.1862 32.5801 25.4828 32.7518 24.8493 33.0808C24.2157 33.4097 23.6706 33.8863 23.26 34.4702C22.52 35.2702 22.05 35.7202 21.08 35.7202C20.11 35.7202 19.65 35.2702 18.91 34.4702C18.4881 33.8978 17.9407 33.4298 17.3096 33.1022C16.6786 32.7745 15.9808 32.596 15.27 32.5802C14.5592 32.596 13.8614 32.7745 13.2304 33.1022C12.5993 33.4298 12.0519 33.8978 11.63 34.4702C10.89 35.2702 10.42 35.7202 9.45 35.7202C9.30041 35.7359 9.14959 35.7359 9 35.7202C8.81403 35.6922 8.63455 35.6313 8.47 35.5402C8.32441 35.4618 8.16166 35.4207 7.99631 35.4207C7.83095 35.4206 7.66817 35.4615 7.52251 35.5398C7.37686 35.6181 7.25289 35.7312 7.16171 35.8692C7.07052 36.0071 7.01496 36.1655 7 36.3302V46.1502C7.00048 46.3311 7.05003 46.5085 7.14336 46.6634C7.2367 46.8184 7.37032 46.9452 7.53 47.0302C7.9852 47.2715 8.486 47.4146 9 47.4502H9.45C10.1625 47.4359 10.8623 47.2581 11.4952 46.9304C12.128 46.6027 12.6771 46.1339 13.1 45.5602C13.84 44.7602 14.3 44.3102 15.27 44.3102C16.24 44.3102 16.71 44.7602 17.44 45.5602C17.8518 46.1441 18.3978 46.6206 19.0321 46.9495C19.6664 47.2784 20.3705 47.4501 21.085 47.4501C21.7995 47.4501 22.5036 47.2784 23.1379 46.9495C23.7722 46.6206 24.3182 46.1441 24.73 45.5602C25.46 44.7602 25.93 44.3102 26.89 44.3102C27.85 44.3102 28.33 44.7602 29.07 45.5602C29.4817 46.1441 30.0278 46.6206 30.6621 46.9495C31.2964 47.2784 32.0005 47.4501 32.715 47.4501C33.4295 47.4501 34.1336 47.2784 34.7679 46.9495C35.4022 46.6206 35.9483 46.1441 36.36 45.5602C37.1 44.7602 37.56 44.3102 38.53 44.3102C39.5 44.3102 39.97 44.7602 40.71 45.5602C41.1217 46.1441 41.6678 46.6206 42.3021 46.9495C42.9364 47.2784 43.6405 47.4501 44.355 47.4501C45.0695 47.4501 45.7736 47.2784 46.4079 46.9495C47.0422 46.6206 47.5883 46.1441 48 45.5602C48.74 44.7602 49.2 44.3102 50.17 44.3102C50.326 44.2894 50.484 44.2894 50.64 44.3102C50.8287 44.3398 51.0112 44.4006 51.18 44.4902C51.2974 44.5505 51.4256 44.5869 51.5572 44.5974C51.6888 44.6079 51.8211 44.5923 51.9466 44.5514C52.0721 44.5105 52.1883 44.4451 52.2884 44.3591C52.3886 44.2731 52.4707 44.1681 52.53 44.0502C52.6014 43.9109 52.6391 43.7567 52.64 43.6002V33.8602C52.634 33.6807 52.5798 33.5061 52.483 33.3547C52.3862 33.2034 52.2505 33.0809 52.09 33.0002Z" fill="url(#paint5_linear)"/>
<path d="M52.09 42.79C51.6409 42.5513 51.1472 42.4083 50.64 42.37C50.4835 42.3597 50.3265 42.3597 50.17 42.37C49.4592 42.3858 48.7614 42.5644 48.1304 42.892C47.4993 43.2197 46.9518 43.6876 46.53 44.26C45.79 45.06 45.32 45.51 44.35 45.51C43.38 45.51 42.92 45.06 42.18 44.26C41.7683 43.6761 41.2222 43.1996 40.5879 42.8707C39.9536 42.5418 39.2495 42.3701 38.535 42.3701C37.8205 42.3701 37.1164 42.5418 36.4821 42.8707C35.8478 43.1996 35.3017 43.6761 34.89 44.26C34.15 45.06 33.69 45.51 32.72 45.51C31.75 45.51 31.28 45.06 30.54 44.26C30.1294 43.6761 29.5843 43.1995 28.9507 42.8706C28.3172 42.5416 27.6138 42.3699 26.9 42.3699C26.1862 42.3699 25.4828 42.5416 24.8493 42.8706C24.2157 43.1995 23.6706 43.6761 23.26 44.26C22.52 45.06 22.05 45.51 21.08 45.51C20.11 45.51 19.65 45.06 18.91 44.26C18.4881 43.6876 17.9407 43.2197 17.3096 42.892C16.6786 42.5644 15.9808 42.3858 15.27 42.37C14.5592 42.3858 13.8614 42.5644 13.2304 42.892C12.5993 43.2197 12.0519 43.6876 11.63 44.26C10.89 45.06 10.42 45.51 9.45 45.51C9.30041 45.5257 9.14959 45.5257 9 45.51C8.81408 45.4818 8.63463 45.4209 8.47 45.33C8.32225 45.2509 8.15699 45.2102 7.98941 45.2117C7.82183 45.2132 7.6573 45.2567 7.51094 45.3383C7.36459 45.42 7.24109 45.5371 7.15182 45.6789C7.06254 45.8207 7.01033 45.9827 7 46.15V53.64C7 53.9052 7.10536 54.1596 7.29289 54.3471C7.48043 54.5346 7.73478 54.64 8 54.64H51.64C51.9052 54.64 52.1596 54.5346 52.3471 54.3471C52.5346 54.1596 52.64 53.9052 52.64 53.64V43.64C52.6323 43.4622 52.5772 43.2897 52.4805 43.1403C52.3838 42.9908 52.249 42.8699 52.09 42.79V42.79Z" fill="url(#paint6_linear)"/>
<path d="M60 54.6401H4C3.73478 54.6401 3.48043 54.5348 3.29289 54.3472C3.10536 54.1597 3 53.9054 3 53.6401C3 53.3749 3.10536 53.1206 3.29289 52.933C3.48043 52.7455 3.73478 52.6401 4 52.6401H60C60.2652 52.6401 60.5196 52.7455 60.7071 52.933C60.8946 53.1206 61 53.3749 61 53.6401C61 53.9054 60.8946 54.1597 60.7071 54.3472C60.5196 54.5348 60.2652 54.6401 60 54.6401Z" fill="url(#paint7_linear)"/>
<path d="M60 52.6401H57V31.7801C56.9727 29.6145 56.2259 27.5194 54.8772 25.8249C53.5284 24.1303 51.6543 22.9325 49.55 22.4201C50.1136 21.9452 50.535 21.3238 50.7677 20.6245C51.0005 19.9253 51.0355 19.1753 50.869 18.4574C50.7024 17.7395 50.3408 17.0815 49.8239 16.5561C49.3071 16.0307 48.6551 15.6584 47.94 15.4801C47.7259 13.7903 46.9029 12.2365 45.6254 11.1099C44.3478 9.98332 42.7033 9.36119 41 9.36011C40.7348 9.36011 40.4804 9.46546 40.2929 9.653C40.1054 9.84054 40 10.0949 40 10.3601C40 10.6253 40.1054 10.8797 40.2929 11.0672C40.4804 11.2548 40.7348 11.3601 41 11.3601C42.1804 11.3626 43.3218 11.7826 44.2222 12.5458C45.1226 13.309 45.7241 14.3661 45.92 15.5301C45.264 15.7189 44.6672 16.0726 44.1864 16.5573C43.7057 17.042 43.357 17.6416 43.1736 18.2992C42.9902 18.9568 42.9781 19.6504 43.1385 20.3139C43.2989 20.9775 43.6264 21.5889 44.09 22.0901H34.91C35.3824 21.5779 35.7129 20.9512 35.8686 20.2721C36.0244 19.5929 36 18.8849 35.7979 18.218C35.5958 17.5512 35.2231 16.9487 34.7165 16.4702C34.21 15.9917 33.5873 15.6539 32.91 15.4901C32.6988 13.8036 31.8811 12.2515 30.6096 11.1236C29.3381 9.99559 27.6997 9.36878 26 9.36011C25.7348 9.36011 25.4804 9.46546 25.2929 9.653C25.1054 9.84054 25 10.0949 25 10.3601C25 10.6253 25.1054 10.8797 25.2929 11.0672C25.4804 11.2548 25.7348 11.3601 26 11.3601C27.1804 11.3626 28.3218 11.7826 29.2222 12.5458C30.1227 13.309 30.7241 14.3661 30.92 15.5301C30.264 15.7189 29.6672 16.0726 29.1864 16.5573C28.7057 17.042 28.357 17.6416 28.1736 18.2992C27.9901 18.9568 27.9781 19.6504 28.1385 20.3139C28.2989 20.9775 28.6264 21.5889 29.09 22.0901H19.91C20.3824 21.5779 20.7129 20.9512 20.8686 20.2721C21.0244 19.5929 21 18.8849 20.7979 18.218C20.5958 17.5512 20.2231 16.9487 19.7165 16.4702C19.21 15.9917 18.5873 15.6539 17.91 15.4901C17.6988 13.8036 16.8811 12.2515 15.6096 11.1236C14.3381 9.99559 12.6997 9.36878 11 9.36011C10.7348 9.36011 10.4804 9.46546 10.2929 9.653C10.1054 9.84054 10 10.0949 10 10.3601C10 10.6253 10.1054 10.8797 10.2929 11.0672C10.4804 11.2548 10.7348 11.3601 11 11.3601C12.1804 11.3626 13.3218 11.7826 14.2222 12.5458C15.1227 13.309 15.7241 14.3661 15.92 15.5301C15.264 15.7189 14.6672 16.0726 14.1864 16.5573C13.7057 17.042 13.357 17.6416 13.1736 18.2992C12.9901 18.9568 12.9781 19.6504 13.1385 20.3139C13.2989 20.9775 13.6264 21.5889 14.09 22.0901H8.54C8.13329 22.0901 7.7431 22.251 7.45458 22.5376C7.16606 22.8243 7.00264 23.2134 7 23.6201V52.6201H4C3.73478 52.6201 3.48043 52.7255 3.29289 52.913C3.10536 53.1005 3 53.3549 3 53.6201C3 53.8853 3.10536 54.1397 3.29289 54.3272C3.48043 54.5147 3.73478 54.6201 4 54.6201H60C60.2652 54.6201 60.5196 54.5147 60.7071 54.3272C60.8946 54.1397 61 53.8853 61 53.6201C61 53.3549 60.8946 53.1005 60.7071 52.913C60.5196 52.7255 60.2652 52.6201 60 52.6201V52.6401ZM32 17.3601C32.3956 17.3601 32.7822 17.4774 33.1111 17.6972C33.44 17.9169 33.6964 18.2293 33.8478 18.5947C33.9991 18.9602 34.0387 19.3623 33.9616 19.7503C33.8844 20.1383 33.6939 20.4946 33.4142 20.7743C33.1345 21.054 32.7781 21.2445 32.3902 21.3217C32.0022 21.3988 31.6001 21.3592 31.2346 21.2079C30.8692 21.0565 30.5568 20.8001 30.3371 20.4712C30.1173 20.1423 30 19.7557 30 19.3601C30 18.8297 30.2107 18.321 30.5858 17.9459C30.9609 17.5708 31.4696 17.3601 32 17.3601V17.3601ZM17 17.3601C17.3956 17.3601 17.7822 17.4774 18.1111 17.6972C18.44 17.9169 18.6964 18.2293 18.8478 18.5947C18.9991 18.9602 19.0387 19.3623 18.9616 19.7503C18.8844 20.1383 18.6939 20.4946 18.4142 20.7743C18.1345 21.054 17.7781 21.2445 17.3902 21.3217C17.0022 21.3988 16.6001 21.3592 16.2346 21.2079C15.8692 21.0565 15.5568 20.8001 15.3371 20.4712C15.1173 20.1423 15 19.7557 15 19.3601C15 18.8297 15.2107 18.321 15.5858 17.9459C15.9609 17.5708 16.4696 17.3601 17 17.3601V17.3601ZM47 17.3601C47.3956 17.3601 47.7822 17.4774 48.1111 17.6972C48.44 17.9169 48.6964 18.2293 48.8478 18.5947C48.9991 18.9602 49.0387 19.3623 48.9616 19.7503C48.8844 20.1383 48.6939 20.4946 48.4142 20.7743C48.1345 21.054 47.7781 21.2445 47.3902 21.3217C47.0022 21.3988 46.6001 21.3592 46.2346 21.2079C45.8692 21.0565 45.5568 20.8001 45.3371 20.4712C45.1173 20.1423 45 19.7557 45 19.3601C45 18.8297 45.2107 18.321 45.5858 17.9459C45.9609 17.5708 46.4696 17.3601 47 17.3601ZM47 24.0901C49.0796 24.0526 51.0893 24.8409 52.5888 26.2823C54.0883 27.7237 54.9554 29.7006 55 31.7801V52.6401H52.64V32.0001C52.6374 30.5263 52.0507 29.1136 51.0086 28.0715C49.9665 27.0294 48.5538 26.4428 47.08 26.4401H9V24.0901H47ZM50.64 32.5401H50.18C49.4675 32.5544 48.7677 32.7322 48.1348 33.0599C47.502 33.3876 46.9529 33.8564 46.53 34.4301C45.79 35.2301 45.32 35.6801 44.35 35.6801C43.38 35.6801 42.92 35.2301 42.18 34.4301C41.7683 33.8462 41.2222 33.3697 40.5879 33.0408C39.9536 32.7119 39.2495 32.5402 38.535 32.5402C37.8205 32.5402 37.1164 32.7119 36.4821 33.0408C35.8478 33.3697 35.3017 33.8462 34.89 34.4301C34.15 35.2301 33.69 35.6801 32.72 35.6801C31.75 35.6801 31.28 35.2301 30.54 34.4301C30.1294 33.8462 29.5843 33.3696 28.9507 33.0407C28.3172 32.7117 27.6138 32.54 26.9 32.54C26.1862 32.54 25.4828 32.7117 24.8493 33.0407C24.2157 33.3696 23.6706 33.8462 23.26 34.4301C22.52 35.2301 22.05 35.6801 21.08 35.6801C20.11 35.6801 19.65 35.2301 18.91 34.4301C18.4871 33.8564 17.938 33.3876 17.3052 33.0599C16.6723 32.7322 15.9725 32.5544 15.26 32.5401C14.549 32.5551 13.851 32.7334 13.2198 33.0611C12.5887 33.3888 12.0413 33.8572 11.62 34.4301C10.88 35.2301 10.41 35.6801 9.44 35.6801C9.29034 35.6943 9.13966 35.6943 8.99 35.6801V28.4501H47.07C48.0134 28.4501 48.9184 28.8235 49.5873 29.4887C50.2563 30.1538 50.6347 31.0568 50.64 32.0001V32.5401ZM9 37.6401H9.45C10.1625 37.6259 10.8623 37.448 11.4952 37.1203C12.128 36.7926 12.6771 36.3238 13.1 35.7501C13.84 34.9501 14.3 34.5001 15.27 34.5001C16.24 34.5001 16.71 34.9501 17.45 35.7501C17.8606 36.334 18.4057 36.8106 19.0393 37.1395C19.6728 37.4685 20.3762 37.6402 21.09 37.6402C21.8038 37.6402 22.5072 37.4685 23.1407 37.1395C23.7743 36.8106 24.3194 36.334 24.73 35.7501C25.47 34.9501 25.93 34.5001 26.9 34.5001C27.87 34.5001 28.34 34.9501 29.08 35.7501C29.4906 36.334 30.0357 36.8106 30.6693 37.1395C31.3028 37.4685 32.0062 37.6402 32.72 37.6402C33.4338 37.6402 34.1372 37.4685 34.7707 37.1395C35.4043 36.8106 35.9494 36.334 36.36 35.7501C37.1 34.9501 37.57 34.5001 38.54 34.5001C39.51 34.5001 40 35.0001 40.71 35.7701C41.1206 36.354 41.6657 36.8306 42.2993 37.1595C42.9328 37.4885 43.6362 37.6602 44.35 37.6602C45.0638 37.6602 45.7672 37.4885 46.4007 37.1595C47.0343 36.8306 47.5794 36.354 47.99 35.7701C48.73 34.9701 49.2 34.5201 50.17 34.5201C50.323 34.5054 50.477 34.5054 50.63 34.5201V42.3101H50.17C49.4574 42.3244 48.7577 42.5022 48.1248 42.8299C47.492 43.1576 46.9429 43.6264 46.52 44.2001C45.78 45.0001 45.31 45.4501 44.34 45.4501C43.37 45.4501 42.91 45.0001 42.17 44.2001C41.7582 43.6162 41.2122 43.1397 40.5779 42.8108C39.9436 42.4819 39.2395 42.3102 38.525 42.3102C37.8105 42.3102 37.1064 42.4819 36.4721 42.8108C35.8378 43.1397 35.2918 43.6162 34.88 44.2001C34.14 45.0001 33.68 45.4501 32.71 45.4501C31.74 45.4501 31.27 45.0001 30.53 44.2001C30.1194 43.6162 29.5743 43.1396 28.9407 42.8107C28.3072 42.4817 27.6038 42.31 26.89 42.31C26.1762 42.31 25.4728 42.4817 24.8393 42.8107C24.2057 43.1396 23.6606 43.6162 23.25 44.2001C22.51 45.0001 22.04 45.4501 21.07 45.4501C20.1 45.4501 19.64 45.0001 18.9 44.2001C18.4771 43.6264 17.928 43.1576 17.2952 42.8299C16.6623 42.5022 15.9625 42.3244 15.25 42.3101C14.539 42.3251 13.841 42.5034 13.2098 42.8311C12.5787 43.1588 12.0313 43.6272 11.61 44.2001C10.87 45.0001 10.4 45.4501 9.43 45.4501C9.28034 45.4643 9.12966 45.4643 8.98 45.4501L9 37.6401ZM9 52.6401V47.4601H9.45C10.1625 47.4459 10.8623 47.268 11.4952 46.9403C12.128 46.6126 12.6771 46.1438 13.1 45.5701C13.84 44.7701 14.3 44.3201 15.27 44.3201C16.24 44.3201 16.71 44.7701 17.45 45.5701C17.8606 46.154 18.4057 46.6306 19.0393 46.9595C19.6728 47.2885 20.3762 47.4602 21.09 47.4602C21.8038 47.4602 22.5072 47.2885 23.1407 46.9595C23.7743 46.6306 24.3194 46.154 24.73 45.5701C25.47 44.7701 25.93 44.3201 26.9 44.3201C27.87 44.3201 28.34 44.7701 29.08 45.5701C29.4906 46.154 30.0357 46.6306 30.6693 46.9595C31.3028 47.2885 32.0062 47.4602 32.72 47.4602C33.4338 47.4602 34.1372 47.2885 34.7707 46.9595C35.4043 46.6306 35.9494 46.154 36.36 45.5701C37.1 44.7701 37.57 44.3201 38.54 44.3201C39.51 44.3201 39.98 44.7701 40.72 45.5701C41.1306 46.154 41.6757 46.6306 42.3093 46.9595C42.9428 47.2885 43.6462 47.4602 44.36 47.4602C45.0738 47.4602 45.7772 47.2885 46.4107 46.9595C47.0443 46.6306 47.5894 46.154 48 45.5701C48.74 44.7701 49.21 44.3201 50.18 44.3201C50.333 44.3054 50.487 44.3054 50.64 44.3201V52.5701L9 52.6401Z" fill="black"/>
<defs>
<linearGradient id="paint0_linear" x1="10" y1="16.3601" x2="21" y2="16.3601" gradientUnits="userSpaceOnUse">
<stop stop-color="#9F002B"/>
<stop offset="0.69" stop-color="#6A001F"/>
<stop offset="1" stop-color="#51001A"/>
</linearGradient>
<linearGradient id="paint1_linear" x1="298" y1="239.103" x2="418.12" y2="239.103" gradientUnits="userSpaceOnUse">
<stop stop-color="#9F002B"/>
<stop offset="0.69" stop-color="#6A001F"/>
<stop offset="1" stop-color="#51001A"/>
</linearGradient>
<linearGradient id="paint2_linear" x1="476.8" y1="239.103" x2="596.92" y2="239.103" gradientUnits="userSpaceOnUse">
<stop stop-color="#9F002B"/>
<stop offset="0.69" stop-color="#6A001F"/>
<stop offset="1" stop-color="#51001A"/>
</linearGradient>
<linearGradient id="paint3_linear" x1="7" y1="38.3701" x2="57" y2="38.3701" gradientUnits="userSpaceOnUse">
<stop stop-color="#703D04"/>
<stop offset="0.38" stop-color="#583003"/>
<stop offset="1" stop-color="#2A1702"/>
</linearGradient>
<linearGradient id="paint4_linear" x1="7" y1="32.0502" x2="52.64" y2="32.0502" gradientUnits="userSpaceOnUse">
<stop stop-color="#FDFBF7"/>
<stop offset="0.35" stop-color="#F5F0DF"/>
<stop offset="1" stop-color="#E3D7A9"/>
</linearGradient>
<linearGradient id="paint5_linear" x1="7" y1="627.68" x2="2409.49" y2="627.68" gradientUnits="userSpaceOnUse">
<stop stop-color="#703D04"/>
<stop offset="0.38" stop-color="#583003"/>
<stop offset="1" stop-color="#2A1702"/>
</linearGradient>
<linearGradient id="paint6_linear" x1="7" y1="48.49" x2="52.64" y2="48.49" gradientUnits="userSpaceOnUse">
<stop stop-color="#AC9430"/>
<stop offset="0.36" stop-color="#9F7C21"/>
<stop offset="1" stop-color="#834800"/>
</linearGradient>
<linearGradient id="paint7_linear" x1="3" y1="53.6401" x2="61" y2="53.6401" gradientUnits="userSpaceOnUse">
<stop stop-color="#C6C6C6"/>
<stop offset="0.42" stop-color="#AEAEAE"/>
<stop offset="1" stop-color="#878787"/>
</linearGradient>
</defs>
</svg>
