<?xml version="1.0" encoding="UTF-8" standalone="no"?> <svg width="64" height="64" viewBox="0 0 64 64" fill="none" xmlns="http://www.w3.org/2000/svg">
<path d="M45.8502 34.6501C45.4036 34.4061 44.9427 34.1891 44.4702 34.0001C42.8413 33.3715 41.1058 33.0659 39.3602 33.1001C36.5547 33.0342 33.8002 33.8567 31.4902 35.4501C29.479 36.8461 27.0779 37.5707 24.6302 37.5201C22.6327 37.407 20.6962 36.7913 19.0002 35.7301C18.4402 35.4101 18.0002 35.1101 17.5702 34.8801C17.4178 34.7937 17.2454 34.7489 17.0702 34.7501H16.9402L17.0002 36.9101L18.4002 60.0601C18.4155 60.3148 18.5276 60.554 18.7135 60.7287C18.8994 60.9035 19.145 61.0006 19.4002 61.0001H43.9302C44.1853 61.0006 44.431 60.9035 44.6169 60.7287C44.8028 60.554 44.9149 60.3148 44.9302 60.0601L46.3802 35.5901C46.3859 35.5637 46.3859 35.5365 46.3802 35.5101C46.3761 35.3326 46.3249 35.1594 46.2318 35.0083C46.1386 34.8571 46.0069 34.7335 45.8502 34.6501Z" fill="url(#paint0_linear)"/>
<path d="M32.0902 48.5001C32.0167 48.391 31.9225 48.2974 31.8129 48.2247C31.7032 48.1521 31.5803 48.1018 31.4512 48.0767C31.3221 48.0516 31.1893 48.0523 31.0604 48.0786C30.9315 48.1049 30.8091 48.1564 30.7002 48.2301L25.3402 51.8401C25.231 51.9135 25.1375 52.0078 25.0648 52.1174C24.9922 52.227 24.9419 52.3499 24.9168 52.4791C24.8917 52.6082 24.8923 52.741 24.9187 52.8699C24.945 52.9987 24.9965 53.1211 25.0702 53.2301L28.6802 58.5901C28.754 58.6987 28.8486 58.7917 28.9584 58.8637C29.0682 58.9358 29.1911 58.9855 29.3202 59.0101H29.5102C29.7096 59.0105 29.9046 58.9513 30.0702 58.8401L35.4302 55.2301C35.5393 55.1567 35.6329 55.0624 35.7055 54.9528C35.7782 54.8431 35.8285 54.7202 35.8536 54.5911C35.8786 54.462 35.878 54.3292 35.8517 54.2003C35.8254 54.0714 35.7739 53.949 35.7002 53.8401L32.0902 48.5001Z" fill="white"/>
<path d="M42.84 41.8L37.24 38.57C37.1258 38.5039 36.9998 38.461 36.869 38.4438C36.7382 38.4266 36.6053 38.4355 36.478 38.4699C36.3506 38.5043 36.2313 38.5635 36.127 38.6442C36.0227 38.7249 35.9353 38.8254 35.87 38.94L32.64 44.54C32.5088 44.7684 32.473 45.0394 32.5404 45.294C32.6078 45.5487 32.7729 45.7664 33 45.9L38.6 49.13C38.7153 49.2009 38.8439 49.2477 38.9778 49.2674C39.1118 49.2872 39.2483 49.2795 39.3792 49.2449C39.5101 49.2104 39.6327 49.1495 39.7394 49.0662C39.8461 48.9828 39.9347 48.8787 40 48.76L43.23 43.16C43.2937 43.0451 43.3342 42.9188 43.3491 42.7882C43.364 42.6577 43.353 42.5255 43.3168 42.3992C43.2806 42.2729 43.2198 42.155 43.138 42.0522C43.0562 41.9493 42.9549 41.8637 42.84 41.8V41.8Z" fill="white"/>
<path d="M46.7 24.9401C46.6059 24.8414 46.4926 24.763 46.367 24.7097C46.2415 24.6564 46.1064 24.6293 45.97 24.6301H17.35C17.2136 24.6293 17.0785 24.6564 16.9529 24.7097C16.8274 24.763 16.7141 24.8414 16.62 24.9401C16.526 25.04 16.4535 25.1581 16.407 25.2871C16.3606 25.4161 16.3411 25.5533 16.35 25.6901L16.89 34.7601L17 36.9101C17.57 37.2501 18.27 37.6601 19.07 38.0501C20.7798 38.9576 22.6752 39.4605 24.61 39.5201C27.4197 39.5832 30.1775 38.7572 32.49 37.1601C34.4987 35.7678 36.8965 35.0467 39.34 35.1001C41.0625 35.03 42.7769 35.3729 44.34 36.1001C44.54 36.1901 44.73 36.2801 44.91 36.3801C45.1408 36.5097 45.4136 36.5424 45.6685 36.4712C45.9234 36.4 46.1397 36.2306 46.27 36.0001C46.3399 35.8747 46.3777 35.7338 46.38 35.5901C46.3857 35.5638 46.3857 35.5365 46.38 35.5101L47 25.6901C47.0049 25.5511 46.9807 25.4126 46.9291 25.2835C46.8774 25.1544 46.7994 25.0374 46.7 24.9401Z" fill="url(#paint1_linear)"/>
<path d="M27.1502 49.1501C26.9893 49.1575 26.829 49.1261 26.6829 49.0583C26.5369 48.9905 26.4093 48.8885 26.3111 48.7609C26.213 48.6332 26.147 48.4838 26.119 48.3252C26.091 48.1666 26.1017 48.0036 26.1502 47.8501L40.2002 3.70007C40.2662 3.48936 40.4001 3.30642 40.581 3.17979C40.7619 3.05317 40.9796 2.98997 41.2002 3.00007H48.7402C49.0054 3.00007 49.2597 3.10543 49.4473 3.29296C49.6348 3.4805 49.7402 3.73485 49.7402 4.00007C49.7402 4.26529 49.6348 4.51964 49.4473 4.70718C49.2597 4.89471 49.0054 5.00007 48.7402 5.00007H41.8902L28.1102 48.4601C28.0443 48.6622 27.9157 48.8381 27.743 48.9621C27.5704 49.0862 27.3627 49.152 27.1502 49.1501Z" fill="url(#paint2_linear)"/>
<path d="M31.6601 6.22998C27.0584 6.23528 22.647 8.06629 19.3941 11.3211C16.1412 14.5758 14.3127 18.9884 14.3101 23.59V25.59C14.3101 25.8552 14.4154 26.1096 14.603 26.2971C14.7905 26.4846 15.0448 26.59 15.3101 26.59H48.0001C48.2653 26.59 48.5196 26.4846 48.7072 26.2971C48.8947 26.1096 49.0001 25.8552 49.0001 25.59V23.59C48.9974 18.9901 47.1703 14.5791 43.9196 11.3246C40.6688 8.07011 36.2599 6.23792 31.6601 6.22998V6.22998Z" fill="url(#paint3_linear)"/>
<path d="M27.45 13.7501C27.1848 13.7899 26.9146 13.7226 26.699 13.5632C26.4833 13.4038 26.3398 13.1653 26.3 12.9001C26.2602 12.6349 26.3274 12.3647 26.4868 12.149C26.6462 11.9334 26.8848 11.7899 27.15 11.7501C27.6995 11.5783 28.2611 11.4479 28.83 11.3601C29.0952 11.3203 29.3654 11.3875 29.5811 11.5469C29.7967 11.7063 29.9402 11.9449 29.98 12.2101C30.0198 12.4753 29.9526 12.7454 29.7932 12.9611C29.6338 13.1768 29.3952 13.3203 29.13 13.3601C28.6593 13.4315 28.1946 13.5385 27.74 13.6801C27.6474 13.7178 27.5496 13.7414 27.45 13.7501Z" fill="white"/>
<path d="M20.3701 21.1401C20.2838 21.1514 20.1964 21.1514 20.1101 21.1401C19.8545 21.072 19.6362 20.9054 19.5031 20.6767C19.3701 20.4481 19.333 20.176 19.4001 19.9201C20.0074 17.5666 21.3448 15.4661 23.2201 13.9201L23.3301 13.8301C23.5383 13.6656 23.8033 13.5906 24.0668 13.6216C24.3303 13.6525 24.5707 13.7869 24.7351 13.9951C24.8996 14.2033 24.9746 14.4682 24.9436 14.7317C24.9127 14.9952 24.7783 15.2356 24.5701 15.4001L24.4901 15.4701C22.945 16.7406 21.8394 18.4655 21.3301 20.4001C21.2732 20.6115 21.1485 20.7984 20.975 20.9321C20.8016 21.0658 20.5891 21.1388 20.3701 21.1401Z" fill="white"/>
<path d="M27.45 13.7501C27.5495 13.7652 27.6506 13.7652 27.75 13.7501C28.2046 13.6086 28.6693 13.5016 29.14 13.4301C29.4052 13.3904 29.6438 13.2468 29.8032 13.0312C29.9626 12.8155 30.0298 12.5454 29.99 12.2801C29.9502 12.0149 29.8067 11.7764 29.5911 11.617C29.3754 11.4576 29.1052 11.3904 28.84 11.4301C28.2711 11.518 27.7095 11.6483 27.16 11.8201C26.8948 11.8599 26.6563 12.0034 26.4968 12.2191C26.3374 12.4348 26.2702 12.7049 26.31 12.9701C26.3498 13.2354 26.4933 13.4739 26.709 13.6333C26.9246 13.7927 27.1948 13.8599 27.46 13.8201L27.45 13.7501Z" fill="black"/>
<path d="M20.11 21.11C20.1963 21.1213 20.2837 21.1213 20.37 21.11C20.5971 21.1172 20.8199 21.0468 21.0016 20.9105C21.1834 20.7742 21.3133 20.58 21.37 20.36C21.8792 18.4255 22.9849 16.7005 24.53 15.43L24.61 15.36C24.8182 15.1956 24.9525 14.9552 24.9835 14.6917C25.0144 14.4282 24.9394 14.1632 24.775 13.955C24.6106 13.7468 24.3702 13.6125 24.1067 13.5815C23.8432 13.5506 23.5782 13.6256 23.37 13.79L23.26 13.88C21.3846 15.4261 20.0473 17.5266 19.44 19.88C19.3684 20.1319 19.3984 20.4019 19.5237 20.6319C19.649 20.8619 19.8595 21.0336 20.11 21.11Z" fill="black"/>
<path d="M48.6901 5.00007C48.9553 5.00007 49.2097 4.89471 49.3972 4.70718C49.5847 4.51964 49.6901 4.26529 49.6901 4.00007C49.6901 3.73485 49.5847 3.4805 49.3972 3.29296C49.2097 3.10543 48.9553 3.00007 48.6901 3.00007H41.1501C40.9295 2.98997 40.7118 3.05317 40.5309 3.17979C40.35 3.30642 40.2161 3.48936 40.1501 3.70007L38.8901 7.83007C36.2484 6.61043 33.342 6.07597 30.4393 6.27601C27.5365 6.47605 24.7309 7.40416 22.2815 8.97465C19.8321 10.5451 17.8178 12.7074 16.4246 15.2618C15.0314 17.8162 14.3042 20.6804 14.3101 23.5901V25.5901C14.3101 25.8553 14.4155 26.1096 14.603 26.2972C14.7905 26.4847 15.0449 26.5901 15.3101 26.5901H16.4101L18.4101 60.0201C18.4254 60.2748 18.5375 60.5139 18.7234 60.6887C18.9093 60.8634 19.155 60.9605 19.4101 60.9601H43.9301C44.1852 60.9605 44.4309 60.8634 44.6168 60.6887C44.8027 60.5139 44.9148 60.2748 44.9301 60.0201L46.3801 35.5901L46.9101 26.5901H48.0001C48.2653 26.5901 48.5197 26.4847 48.7072 26.2972C48.8947 26.1096 49.0001 25.8553 49.0001 25.5901V23.5901C48.9975 20.6159 48.2298 17.6923 46.771 15.1004C45.3122 12.5086 43.2113 10.3355 40.6701 8.79007L41.8901 5.00007H48.6901ZM16.3101 23.5901C16.3028 20.9912 16.9567 18.4332 18.2104 16.1567C19.4641 13.8802 21.2763 11.9601 23.4766 10.5769C25.6768 9.19375 28.1927 8.39306 30.7877 8.25017C33.3826 8.10727 35.9713 8.62687 38.3101 9.76007L33.5601 24.6301H16.3101V23.5901ZM32.9301 26.5901L29.8401 36.3301C28.2242 37.1344 26.4342 37.5261 24.6301 37.4701C22.6678 37.5429 20.7224 37.0833 19.0001 36.1401L18.4301 26.6301L32.9301 26.5901ZM43.0001 59.0001H29.6601C29.8061 58.9809 29.9461 58.9297 30.0701 58.8501L35.4301 55.2401C35.5392 55.1666 35.6328 55.0724 35.7054 54.9628C35.7781 54.8531 35.8284 54.7302 35.8535 54.6011C35.8786 54.472 35.8779 54.3392 35.8516 54.2103C35.8253 54.0814 35.7738 53.959 35.7001 53.8501L32.0901 48.5001C32.0167 48.3909 31.9224 48.2974 31.8128 48.2247C31.7031 48.1521 31.5802 48.1018 31.4511 48.0767C31.322 48.0516 31.1892 48.0522 31.0603 48.0786C30.9314 48.1049 30.809 48.1564 30.7001 48.2301L25.3401 51.8401C25.231 51.9135 25.1374 52.0077 25.0647 52.1174C24.9921 52.227 24.9418 52.3499 24.9167 52.479C24.8916 52.6082 24.8923 52.741 24.9186 52.8698C24.9449 52.9987 24.9964 53.1211 25.0701 53.2301L28.6801 58.5901C28.8269 58.8072 29.0532 58.9581 29.3101 59.0101H20.3101L19.1201 38.4301C20.8599 39.1864 22.7435 39.5549 24.6401 39.5101C26.139 39.536 27.6321 39.3164 29.0601 38.8601L26.2101 47.8601C26.1707 47.9855 26.1564 48.1174 26.168 48.2484C26.1796 48.3793 26.2169 48.5067 26.2777 48.6232C26.3385 48.7398 26.4217 48.8432 26.5225 48.9276C26.6233 49.012 26.7397 49.0757 26.8651 49.1151C26.9905 49.1545 27.1225 49.1688 27.2534 49.1572C27.3843 49.1456 27.5117 49.1083 27.6282 49.0475C27.7448 48.9867 27.8482 48.9035 27.9326 48.8027C28.017 48.7019 28.0807 48.5855 28.1201 48.4601L31.5101 37.7601L32.5101 37.1701C34.5145 35.7766 36.9095 35.0553 39.3501 35.1101C41.0721 35.0472 42.7848 35.3897 44.3501 36.1101L43.0001 59.0001ZM29.7801 56.6301L27.2901 52.9301L31.0001 50.4401L33.4901 54.1401L29.7801 56.6301ZM44.4701 34.0001C42.8396 33.3641 41.0999 33.0549 39.3501 33.0901C36.8912 33.0076 34.4608 33.636 32.3501 34.9001L35.0001 26.6301H44.8801L44.4701 34.0001ZM47.0001 23.5901V24.5901H35.6601L40.0601 10.7101C42.1974 12.1098 43.9515 14.0209 45.1634 16.27C46.3752 18.5192 47.0066 21.0352 47.0001 23.5901V23.5901Z" fill="black"/>
<path d="M42.84 41.8L37.24 38.57C37.1258 38.5039 36.9998 38.461 36.869 38.4438C36.7382 38.4266 36.6053 38.4355 36.478 38.4699C36.3506 38.5043 36.2313 38.5635 36.127 38.6442C36.0227 38.7249 35.9353 38.8254 35.87 38.94L32.64 44.54C32.5088 44.7684 32.473 45.0394 32.5404 45.294C32.6078 45.5487 32.7729 45.7664 33 45.9L38.6 49.13C38.7153 49.2009 38.8439 49.2477 38.9778 49.2674C39.1118 49.2872 39.2483 49.2795 39.3792 49.2449C39.5101 49.2104 39.6327 49.1495 39.7394 49.0662C39.8461 48.9828 39.9347 48.8787 40 48.76L43.23 43.16C43.2937 43.0451 43.3342 42.9188 43.3491 42.7882C43.364 42.6577 43.353 42.5255 43.3168 42.3992C43.2806 42.2729 43.2198 42.155 43.138 42.0522C43.0562 41.9493 42.9549 41.8637 42.84 41.8V41.8ZM38.74 46.9L34.88 44.67L37.11 40.81L41 43L38.74 46.9Z" fill="black"/>
<defs>
<linearGradient id="paint0_linear" x1="16.8902" y1="47.0501" x2="46.3902" y2="47.0501" gradientUnits="userSpaceOnUse">
<stop stop-color="#AC9430"/>
<stop offset="0.36" stop-color="#9F7C21"/>
<stop offset="1" stop-color="#834800"/>
</linearGradient>
<linearGradient id="paint1_linear" x1="16.35" y1="32.0801" x2="46.97" y2="32.0801" gradientUnits="userSpaceOnUse">
<stop stop-color="#C6C6C6"/>
<stop offset="0.42" stop-color="#AEAEAE"/>
<stop offset="1" stop-color="#878787"/>
</linearGradient>
<linearGradient id="paint2_linear" x1="26.1502" y1="26.0801" x2="49.6902" y2="26.0801" gradientUnits="userSpaceOnUse">
<stop stop-color="#FDFBF7"/>
<stop offset="0.35" stop-color="#F5F0DF"/>
<stop offset="1" stop-color="#E3D7A9"/>
</linearGradient>
<linearGradient id="paint3_linear" x1="14.3101" y1="16.43" x2="49.0201" y2="16.43" gradientUnits="userSpaceOnUse">
<stop stop-color="#703D04"/>
<stop offset="0.38" stop-color="#583003"/>
<stop offset="1" stop-color="#2A1702"/>
</linearGradient>
</defs>
</svg>
