<?xml version="1.0" encoding="UTF-8" standalone="no"?> <svg width="64" height="64" viewBox="0 0 64 64" fill="none" xmlns="http://www.w3.org/2000/svg">
<path d="M47.9299 13.63L47.6799 13L45.9999 8.81001V4.00001C45.9999 3.73479 45.8946 3.48043 45.7071 3.2929C45.5195 3.10536 45.2652 3.00001 44.9999 3.00001H39.9999C39.8127 2.9994 39.6291 3.05138 39.4699 3.15001L31.7099 8.00001H18.9999C18.7997 7.99981 18.6039 8.05976 18.4381 8.17209C18.2723 8.28441 18.1441 8.44394 18.0699 8.63001L16.3199 13L16.0699 13.63C16.0095 13.7814 15.9871 13.9453 16.0045 14.1074C16.0219 14.2695 16.0787 14.4249 16.1699 14.56C16.2617 14.6957 16.3853 14.8068 16.5301 14.8835C16.6748 14.9603 16.8361 15.0003 16.9999 15H46.9999C47.1638 15.0003 47.3251 14.9603 47.4698 14.8835C47.6146 14.8068 47.7382 14.6957 47.83 14.56C47.9212 14.4249 47.978 14.2695 47.9954 14.1074C48.0128 13.9453 47.9904 13.7814 47.9299 13.63Z" fill="url(#paint0_linear)"/>
<path d="M46.72 18.31C46.6271 18.2125 46.5154 18.1348 46.3917 18.0815C46.268 18.0282 46.1347 18.0005 46 18H18C17.8653 18.0005 17.7321 18.0282 17.6084 18.0815C17.4847 18.1348 17.373 18.2125 17.28 18.31C17.1855 18.4078 17.1119 18.5239 17.0637 18.6511C17.0156 18.7784 16.9939 18.9141 17 19.05L17.29 25L17.34 26C17.34 26.2652 17.4454 26.5196 17.6329 26.7071C17.8205 26.8946 18.0748 27 18.34 27H45.66C45.9253 27 46.1796 26.8946 46.3671 26.7071C46.5547 26.5196 46.66 26.2652 46.66 26L46.71 25L47 19.05C47.0062 18.9141 46.9845 18.7784 46.9363 18.6511C46.8882 18.5239 46.8146 18.4078 46.72 18.31Z" fill="url(#paint1_linear)"/>
<path d="M44.34 53H19.66C19.4035 53.0128 19.1618 53.1238 18.985 53.31C18.8081 53.4962 18.7096 53.7432 18.71 54V55L19 60C19 60.2652 19.1053 60.5196 19.2929 60.7071C19.4804 60.8946 19.7347 61 20 61H44C44.2652 61 44.5195 60.8946 44.7071 60.7071C44.8946 60.5196 45 60.2652 45 60L45.24 55V54C45.2412 53.7512 45.1497 53.5109 44.9833 53.326C44.8169 53.1411 44.5875 53.0249 44.34 53Z" fill="url(#paint2_linear)"/>
<path d="M49 26.0001C49.0048 25.9436 49.0048 25.8867 49 25.8301C49.006 25.7669 49.006 25.7033 49 25.6401C48.9718 25.5838 48.9383 25.5302 48.9 25.4801C48.8686 25.4234 48.8318 25.3698 48.79 25.3201C48.6899 25.2423 48.5865 25.1689 48.48 25.1001C48.4168 25.0941 48.3532 25.0941 48.29 25.1001C48.1991 25.0521 48.1012 25.0183 48 25.0001H16C15.9434 24.9953 15.8866 24.9953 15.83 25.0001C15.7668 24.9941 15.7032 24.9941 15.64 25.0001C15.4185 25.1265 15.238 25.314 15.12 25.5401C15.114 25.6033 15.114 25.6669 15.12 25.7301C15.0669 25.8137 15.0264 25.9047 15 26.0001L16.25 54.0001C16.2433 54.0666 16.2433 54.1336 16.25 54.2001C16.2457 54.2534 16.2457 54.3069 16.25 54.3601C16.2859 54.4283 16.3295 54.492 16.38 54.5501C16.4456 54.6699 16.5521 54.7622 16.68 54.8101L16.79 54.8801C16.9102 54.9314 17.0393 54.9585 17.17 54.9601H46.75C46.8807 54.9585 47.0098 54.9314 47.13 54.8801L47.24 54.8101C47.3679 54.7622 47.4744 54.6699 47.54 54.5501C47.5905 54.492 47.6341 54.4283 47.67 54.3601C47.6743 54.3069 47.6743 54.2534 47.67 54.2001C47.6767 54.1336 47.6767 54.0666 47.67 54.0001L49 26.0001Z" fill="url(#paint3_linear)"/>
<path d="M23.94 37H15.49L15.58 39L15.76 43L15.85 45H23.94C23.6233 44.3635 23.3816 43.6923 23.22 43C22.9266 41.6828 22.9266 40.3172 23.22 39C23.3816 38.3077 23.6233 37.6365 23.94 37Z" fill="#E2E2E2"/>
<path d="M46.5101 37H40.0601C40.3768 37.6365 40.6184 38.3077 40.7801 39C41.0734 40.3172 41.0734 41.6828 40.7801 43C40.6184 43.6923 40.3768 44.3635 40.0601 45H48.1501L48.2401 43L48.4201 39L48.5101 37H46.5101Z" fill="#E2E2E2"/>
<path d="M32 30C29.8244 30 27.6977 30.6451 25.8887 31.8538C24.0798 33.0625 22.6699 34.7805 21.8373 36.7905C21.0048 38.8005 20.7869 41.0122 21.2114 43.146C21.6358 45.2798 22.6835 47.2398 24.2218 48.7782C25.7602 50.3166 27.7202 51.3642 29.854 51.7886C31.9878 52.2131 34.1995 51.9952 36.2095 51.1627C38.2195 50.3301 39.9375 48.9202 41.1462 47.1113C42.3549 45.3023 43 43.1756 43 41C43 38.0826 41.8411 35.2847 39.7782 33.2218C37.7153 31.1589 34.9174 30 32 30Z" fill="#E2E2E2"/>
<path d="M37.2599 37.44C36.3899 35 34.6699 33.35 32.6699 33H32.4599C32.1947 33 31.9404 33.1054 31.7528 33.2929C31.5653 33.4804 31.4599 33.7348 31.4599 34C31.4661 34.2935 31.3628 34.5787 31.17 34.8C31.0723 34.9364 30.9854 35.0802 30.9099 35.23C30.6681 35.6851 30.5476 36.1948 30.5599 36.71C30.5483 37.401 30.7663 38.0763 31.18 38.63C31.3674 38.8577 31.4667 39.1452 31.4599 39.44C31.4683 39.7398 31.3649 40.0321 31.17 40.26C31.07 40.42 30.96 40.58 30.87 40.76V40.83C30.6786 41.2504 30.5829 41.7081 30.59 42.17C30.5903 42.4595 30.6239 42.7481 30.69 43.03C30.7988 43.4096 30.9712 43.7681 31.2 44.09C31.3966 44.3169 31.5002 44.6099 31.4899 44.91C31.4997 45.207 31.396 45.4966 31.2 45.72C31.0663 45.9166 30.9492 46.124 30.85 46.34C30.8089 46.4165 30.7754 46.4969 30.75 46.58C30.7532 46.6032 30.7532 46.6268 30.75 46.65C30.6519 46.9741 30.6047 47.3114 30.61 47.65C30.615 47.8587 30.6852 48.0606 30.8107 48.2273C30.9362 48.3941 31.1108 48.5174 31.3099 48.58H31.4599H32.2599C34.6899 48.48 36.77 46.42 37.56 43.35C38.0746 41.3702 37.9911 39.2823 37.3199 37.35L37.2599 37.44Z" fill="url(#paint4_linear)"/>
<path d="M32.67 41.64L32.83 41.38C33.2327 40.8226 33.4494 40.1526 33.4494 39.465C33.4494 38.7774 33.2327 38.1073 32.83 37.55C32.6427 37.3183 32.5435 37.0278 32.55 36.73C32.5414 36.4349 32.641 36.1468 32.83 35.92C32.9673 35.7238 33.0877 35.5164 33.19 35.3C33.3668 34.8896 33.4554 34.4467 33.45 34C33.4557 33.7688 33.3811 33.5428 33.2388 33.3605C33.0966 33.1782 32.8956 33.0508 32.67 33H32.46C32.3069 32.9896 32.1532 32.9896 32 33C29.79 33 27.8 34.63 26.81 37.24C26.3819 38.3883 26.1651 39.6045 26.17 40.83C26.1633 42.2057 26.4426 43.5678 26.99 44.83C27.3172 45.6675 27.8204 46.425 28.4657 47.0513C29.1109 47.6775 29.8831 48.1579 30.73 48.46C30.9005 48.509 31.0743 48.5457 31.25 48.57H31.4H31.58C31.7114 48.57 31.8414 48.5441 31.9627 48.4939C32.084 48.4436 32.1943 48.3699 32.2871 48.2771C32.38 48.1842 32.4537 48.074 32.5039 47.9527C32.5542 47.8313 32.58 47.7013 32.58 47.57C32.5782 47.4343 32.5985 47.2992 32.64 47.17C32.7012 47.0398 32.7749 46.9159 32.86 46.8C32.9588 46.6554 33.049 46.5051 33.13 46.35C33.3702 45.8979 33.4907 45.3918 33.48 44.88C33.4743 44.1992 33.246 43.5389 32.83 43C32.7305 42.8685 32.6497 42.7237 32.59 42.57V42.57C32.5753 42.4437 32.5753 42.3162 32.59 42.19C32.5835 42.0113 32.6177 41.8335 32.69 41.67C32.69 41.67 32.67 41.65 32.67 41.64Z" fill="url(#paint5_linear)"/>
<path d="M49 13H15C14.4477 13 14 13.4477 14 14V19C14 19.5523 14.4477 20 15 20H49C49.5523 20 50 19.5523 50 19V14C50 13.4477 49.5523 13 49 13Z" fill="url(#paint6_linear)"/>
<path d="M49 13H47.68L46 8.81001V4.00001C46 3.73479 45.8946 3.48043 45.7071 3.2929C45.5196 3.10536 45.2652 3.00001 45 3.00001H40C39.8128 2.9994 39.6291 3.05138 39.47 3.15001L31.71 8.00001H19C18.7997 7.99981 18.604 8.05976 18.4382 8.17209C18.2724 8.28441 18.1441 8.44394 18.07 8.63001L16.32 13H15C14.7348 13 14.4804 13.1054 14.2929 13.2929C14.1054 13.4804 14 13.7348 14 14V19C14 19.2652 14.1054 19.5196 14.2929 19.7071C14.4804 19.8946 14.7348 20 15 20H17L17.24 25H16C15.9434 24.9952 15.8866 24.9952 15.83 25C15.7668 24.994 15.7032 24.994 15.64 25C15.5832 25.0314 15.5296 25.0682 15.48 25.11C15.3649 25.1675 15.2731 25.2628 15.22 25.38C15.1817 25.4301 15.1482 25.4836 15.12 25.54C15.114 25.6032 15.114 25.6668 15.12 25.73C15.0669 25.8136 15.0264 25.9046 15 26L15.8 44L16.25 54C16.2433 54.0665 16.2433 54.1335 16.25 54.2C16.2457 54.2533 16.2457 54.3068 16.25 54.36C16.2859 54.4281 16.3295 54.4919 16.38 54.55C16.4456 54.6698 16.5521 54.7621 16.68 54.81L16.79 54.88C16.9102 54.9312 17.0393 54.9584 17.17 54.96H18.68L19 60C19 60.2652 19.1054 60.5196 19.2929 60.7071C19.4804 60.8946 19.7348 61 20 61H44C44.2652 61 44.5196 60.8946 44.7071 60.7071C44.8946 60.5196 45 60.2652 45 60L45.24 55H46.75C46.8807 54.9984 47.0098 54.9712 47.13 54.92L47.24 54.85C47.3679 54.8021 47.4744 54.7098 47.54 54.59C47.5905 54.5319 47.6341 54.4681 47.67 54.4C47.6743 54.3468 47.6743 54.2933 47.67 54.24C47.6767 54.1735 47.6767 54.1065 47.67 54.04L48.12 44.04L49 26C49.0048 25.9434 49.0048 25.8866 49 25.83C49.006 25.7668 49.006 25.7032 49 25.64C48.9718 25.5836 48.9383 25.5301 48.9 25.48C48.7891 25.3244 48.6458 25.1948 48.48 25.1C48.4168 25.094 48.3532 25.094 48.29 25.1C48.1991 25.052 48.1012 25.0182 48 25H46.71L47 20H49C49.2652 20 49.5196 19.8946 49.7071 19.7071C49.8946 19.5196 50 19.2652 50 19V14C50 13.7348 49.8946 13.4804 49.7071 13.2929C49.5196 13.1054 49.2652 13 49 13ZM19.68 10H32C32.1165 9.99667 32.2316 9.97298 32.34 9.93001H32.43H32.52L40.29 5.00001H44V9.00001C43.9949 9.05656 43.9949 9.11345 44 9.17001C43.9933 9.2365 43.9933 9.30351 44 9.37001L45.52 13H18.52L19.68 10ZM47 27L46.55 37H42.24C41.4308 34.9451 40.0218 33.1814 38.1963 31.9383C36.3709 30.6953 34.2135 30.0305 32.005 30.0305C29.7965 30.0305 27.6391 30.6953 25.8137 31.9383C23.9882 33.1814 22.5792 34.9451 21.77 37H17.49L17 27H47ZM18.2 53L17.84 45H21.76C22.5692 47.0549 23.9782 48.8187 25.8037 50.0617C27.6291 51.3047 29.7865 51.9695 31.995 51.9695C34.2035 51.9695 36.3609 51.3047 38.1863 50.0617C40.0118 48.8187 41.4208 47.0549 42.23 45H46.15L45.79 53H18.2ZM42.81 39H46.42L46.24 43H42.81C43.0648 41.6788 43.0648 40.3212 42.81 39V39ZM41 41C41 42.78 40.4722 44.5201 39.4832 46.0001C38.4943 47.4802 37.0887 48.6337 35.4441 49.3149C33.7996 49.9961 31.99 50.1743 30.2442 49.8271C28.4984 49.4798 26.8947 48.6226 25.636 47.364C24.3774 46.1053 23.5202 44.5016 23.1729 42.7558C22.8257 41.01 23.0039 39.2004 23.6851 37.5559C24.3663 35.9113 25.5198 34.5057 26.9999 33.5168C28.4799 32.5278 30.22 32 32 32C34.3869 32 36.6761 32.9482 38.364 34.636C40.0518 36.3239 41 38.6131 41 41ZM21.19 43H17.76L17.58 39H21.19C20.9352 40.3212 20.9352 41.6788 21.19 43V43ZM43 59H21L20.81 55H43.24L43 59ZM44.66 25H19.29L19 20H45L44.66 25ZM48 18H16V15H48V18Z" fill="black"/>
<path d="M32.6 33C32.4003 32.9854 32.1998 32.9854 32 33C29.79 33 27.8 34.63 26.81 37.24C26.3815 38.3881 26.1647 39.6045 26.17 40.83C26.1653 42.2055 26.4445 43.5672 26.99 44.83C27.3167 45.6667 27.8199 46.4231 28.4653 47.0478C29.1107 47.6725 29.8831 48.1508 30.73 48.45C30.87 48.45 31.01 48.51 31.15 48.54C31.2733 48.5925 31.406 48.6197 31.54 48.62H31.74H32.15C34.58 48.51 36.66 46.46 37.46 43.39C37.6791 42.5441 37.79 41.6738 37.79 40.8C37.7971 39.6455 37.6043 38.4986 37.22 37.41C36.38 34.95 34.63 33.31 32.6 33ZM28.82 44C28.3843 42.9863 28.163 41.8934 28.17 40.79C28.1752 39.8373 28.3479 38.8929 28.68 38C29.0485 36.8523 29.8431 35.8895 30.9 35.31C30.6598 35.7621 30.5393 36.2681 30.55 36.78C30.5398 37.4708 30.7578 38.1456 31.17 38.7C31.3559 38.9309 31.4572 39.2185 31.4572 39.515C31.4572 39.8114 31.3559 40.099 31.17 40.33C31.0598 40.4903 30.9596 40.6573 30.87 40.83V40.9C30.8126 41.0396 30.7658 41.1833 30.73 41.33C30.73 41.39 30.73 41.45 30.67 41.52C30.6176 41.7564 30.5907 41.9978 30.59 42.24C30.5893 42.5296 30.6229 42.8183 30.69 43.1C30.7979 43.48 30.9704 43.8385 31.2 44.16C31.3859 44.3909 31.4872 44.6785 31.4872 44.975C31.4872 45.2714 31.3859 45.559 31.2 45.79C31.0711 45.9877 30.9574 46.195 30.86 46.41C29.9192 45.8698 29.1974 45.0171 28.82 44V44ZM35.57 42.88C35.429 43.6009 35.1357 44.2833 34.7098 44.8817C34.2838 45.4801 33.735 45.9807 33.1 46.35C33.3385 45.9008 33.459 45.3984 33.45 44.89C33.4529 44.2095 33.2354 43.5465 32.83 43C32.7279 42.8665 32.647 42.7181 32.59 42.56C32.59 42.56 32.59 42.48 32.59 42.44C32.5821 42.3535 32.5821 42.2665 32.59 42.18C32.5846 42.0408 32.6049 41.9018 32.65 41.77C32.65 41.77 32.65 41.69 32.65 41.66C32.65 41.57 32.76 41.49 32.81 41.4C33.2112 40.8421 33.4271 40.1722 33.4271 39.485C33.4271 38.7978 33.2112 38.1279 32.81 37.57C32.6259 37.3382 32.5256 37.051 32.5256 36.755C32.5256 36.459 32.6259 36.1717 32.81 35.94C32.9431 35.743 33.0602 35.5357 33.16 35.32C34.2174 35.9479 34.9993 36.9513 35.35 38.13V38.13C35.653 39.0046 35.8052 39.9244 35.8 40.85C35.8101 41.5469 35.7329 42.2423 35.57 42.92V42.88Z" fill="black"/>
<defs>
<linearGradient id="paint0_linear" x1="15.9999" y1="9" x2="47.9999" y2="9" gradientUnits="userSpaceOnUse">
<stop stop-color="#703D04"/>
<stop offset="0.38" stop-color="#583003"/>
<stop offset="1" stop-color="#2A1702"/>
</linearGradient>
<linearGradient id="paint1_linear" x1="17" y1="22.5" x2="47" y2="22.5" gradientUnits="userSpaceOnUse">
<stop stop-color="#C6C6C6"/>
<stop offset="0.42" stop-color="#AEAEAE"/>
<stop offset="1" stop-color="#878787"/>
</linearGradient>
<linearGradient id="paint2_linear" x1="515.087" y1="509" x2="1220.25" y2="509" gradientUnits="userSpaceOnUse">
<stop stop-color="#C6C6C6"/>
<stop offset="0.42" stop-color="#AEAEAE"/>
<stop offset="1" stop-color="#878787"/>
</linearGradient>
<linearGradient id="paint3_linear" x1="525.068" y1="1223.58" x2="1681.22" y2="1223.58" gradientUnits="userSpaceOnUse">
<stop stop-color="#703D04"/>
<stop offset="0.38" stop-color="#583003"/>
<stop offset="1" stop-color="#2A1702"/>
</linearGradient>
<linearGradient id="paint4_linear" x1="254.608" y1="669.443" x2="307.998" y2="669.443" gradientUnits="userSpaceOnUse">
<stop stop-color="#703D04"/>
<stop offset="0.38" stop-color="#583003"/>
<stop offset="1" stop-color="#2A1702"/>
</linearGradient>
<linearGradient id="paint5_linear" x1="26.17" y1="40.82" x2="33.45" y2="40.82" gradientUnits="userSpaceOnUse">
<stop stop-color="#AC9430"/>
<stop offset="0.36" stop-color="#9F7C21"/>
<stop offset="1" stop-color="#834800"/>
</linearGradient>
<linearGradient id="paint6_linear" x1="518" y1="128.5" x2="1814" y2="128.5" gradientUnits="userSpaceOnUse">
<stop stop-color="#AC9430"/>
<stop offset="0.36" stop-color="#9F7C21"/>
<stop offset="1" stop-color="#834800"/>
</linearGradient>
</defs>
</svg>
