<?xml version="1.0" encoding="UTF-8" standalone="no"?> <svg id="Layer_1" data-name="Layer 1" xmlns="http://www.w3.org/2000/svg" viewBox="0 0 64 64"><defs><style>.cls-1{fill:#e5e5e5;}.cls-2{fill:#d1d1d1;}.cls-3{fill:#35251c;}.cls-4{fill:#fff;}.cls-5{fill:#915441;}.cls-6{fill:#c46c30;}.cls-7{fill:#844e40;}</style></defs><title>Top View Coffee Cup Icon</title><circle class="cls-1" cx="32" cy="32" r="29.77"/><path class="cls-2" d="M36.69,2.61V61.39a29.76,29.76,0,0,0,0-58.78Z"/><path class="cls-3" d="M32,63.27A31.27,31.27,0,1,1,63.27,32,31.31,31.31,0,0,1,32,63.27ZM32,3.73A28.27,28.27,0,1,0,60.27,32,28.3,28.3,0,0,0,32,3.73Z"/><circle class="cls-4" cx="32" cy="32" r="17.39"/><path class="cls-1" d="M36.69,15.26V48.74a17.38,17.38,0,0,0,0-33.48Z"/><path class="cls-1" d="M49.58,44l-2.81-2.81a17.49,17.49,0,0,1-6.59,6.19l3,3a4.18,4.18,0,0,0,5.91,0l.48-.48A4.18,4.18,0,0,0,49.58,44Z"/><path class="cls-3" d="M50.64,42.91l-2-2a19,19,0,1,0-8.79,8.24l2.27,2.27a5.71,5.71,0,0,0,8,0l.48-.49A5.67,5.67,0,0,0,50.64,42.91ZM16.11,32a15.89,15.89,0,0,1,31.78,0,15.74,15.74,0,0,1-2.45,8.45c-.16.25-.33.5-.5.75l-.18.23c-.28.39-.59.76-.9,1.12l-.4.44-.46.46c-.22.2-.44.41-.67.6l-.31.28c-.33.26-.66.51-1,.74l-.32.22q-.48.32-1,.6l-.18.11A15.9,15.9,0,0,1,16.11,32ZM48.52,48.81,48,49.3a2.66,2.66,0,0,1-3.78,0l-1.66-1.66c.45-.3.88-.63,1.31-1,.17-.14.34-.3.51-.45s.47-.41.7-.63.42-.42.62-.64l.48-.52c.22-.26.44-.52.65-.79l.12-.14L48.52,45A2.66,2.66,0,0,1,48.52,48.81Z"/><circle class="cls-5" cx="32" cy="32" r="11.49"/><ellipse class="cls-6" cx="28.14" cy="26.93" rx="2.4" ry="1.99" transform="translate(-10.27 33.4) rotate(-53.3)"/><ellipse class="cls-6" cx="25.38" cy="32.91" rx="3.08" ry="1.99" transform="translate(-10.12 54.51) rotate(-83.68)"/><path class="cls-7" d="M36.69,21.52v21a11.48,11.48,0,0,0,0-21Z"/><path class="cls-3" d="M32,45A13,13,0,1,1,45,32,13,13,0,0,1,32,45Zm0-23A10,10,0,1,0,42,32,10,10,0,0,0,32,22Z"/></svg>